<svg xmlns="http://www.w3.org/2000/svg" width="150.002" height="38.72" viewBox="0 0 150.002 38.72">
  <g id="Raggruppa_39" data-name="Raggruppa 39" transform="translate(-992.529 633)">
    <path id="Tracciato_1" data-name="Tracciato 1" d="M36.221,0A.377.377,0,0,1,36.2.114a33.526,33.526,0,0,0-1.486,3.919q.97-.066,1.887-.054c4.734.077,7.523,1.223,8.289,3.4a3.634,3.634,0,0,1,.163.64,14.544,14.544,0,0,1,2.71-2.484,8.55,8.55,0,0,1,4.816-1.715,5.35,5.35,0,0,1,1.66.261c.089.251.317,1.073-.569,1.044h-.013a3.887,3.887,0,0,0-1.417-.265c-2.462,0-5.228,2.177-6.687,4.326A12.8,12.8,0,0,0,43.5,17.3c.175,1.736.847,4.894,3.384,6.531a7.93,7.93,0,0,0,4.347,1.322,10.272,10.272,0,0,0,5.171-1.564V0Z" transform="translate(968.303 -633)" fill="#fff"/>
    <path id="Tracciato_2" data-name="Tracciato 2" d="M2.792,6.206A17.225,17.225,0,0,1,9.046,4.184,31,31,0,0,1,10.57.027c0-.009.011-.018.016-.027H0V9.268A6.6,6.6,0,0,1,2.792,6.206" transform="translate(992.529 -633)" fill="#fff"/>
    <path id="Tracciato_3" data-name="Tracciato 3" d="M36.135,26.153l.233-.1a9.464,9.464,0,0,0,3.386-2.439A4.643,4.643,0,0,0,41.1,19.576a3.659,3.659,0,0,0-2.566-2.345,15.376,15.376,0,0,0-6.448-.705,19.171,19.171,0,0,0-.629,7.031,39.147,39.147,0,0,0,1.98,7.716c.386,1.168.785,2.376,1.124,3.576.2.721.367,1.335.511,1.908a6.426,6.426,0,0,0,1.569-.517,2.449,2.449,0,0,0,1.54-1.781c.246-1.689-1.63-3.568-2.21-4.1-.094-.086-.2-.177-.306-.272-.775-.676-1.944-1.7-1.143-2.879a3.533,3.533,0,0,1,1.612-1.05" transform="translate(970.644 -644.483)" fill="#fff"/>
    <path id="Tracciato_4" data-name="Tracciato 4" d="M14.077,44.874c.017-.249.027-.5.033-.742L12.64,44.1c0-.245,0-.492-.018-.746-.012-.227-.036-.461-.055-.692l1.5-.156c-.016-.248-.039-.5-.063-.738l-1.512.157c-.054-.48-.125-.972-.208-1.476l1.51-.224c-.041-.25-.085-.494-.131-.73l-1.5.222c-.078-.412-.165-.833-.263-1.265-.277.02-.556.03-.835.03a9.3,9.3,0,0,1-6.7-2.521.364.364,0,0,1-.079-.4,1.081,1.081,0,0,1,.908-.454.544.544,0,0,1,.411.148,8.61,8.61,0,0,0,6.075,2.277c-.424-1.707-.951-3.4-1.459-4.98-.115-.361-.234-.723-.353-1.087A26.754,26.754,0,0,1,8.053,22.7a24.613,24.613,0,0,1,.717-5.419c-2.545.4-5.851,1.208-7.138,3.575-.56,1.032-1.037,2.968-.059,4.075a2.827,2.827,0,0,0,2.2.986,5.223,5.223,0,0,0,2.7-.885L6.531,25l.059-.006c.352-.033.592.132.624.435a.509.509,0,0,1-.1.358l-.08.071a8.734,8.734,0,0,1-3.917,1.15A3.145,3.145,0,0,1,.293,25.593,4.785,4.785,0,0,1,0,25.041v25.74H10.677a14.55,14.55,0,0,0,.949-1.819l1.3.443q.155-.336.291-.683L11.9,48.274a12,12,0,0,0,.4-1.327l1.415.209c.05-.2.1-.408.137-.618.007-.036.012-.072.019-.108l-1.422-.211a11.979,11.979,0,0,0,.162-1.374Z" transform="translate(992.529 -645.06)" fill="#fff"/>
    <path id="Tracciato_5" data-name="Tracciato 5" d="M55,57.444a8.933,8.933,0,0,1-3.194-.59c-3.823-1.459-5.934-5.013-5.8-9.752A13.136,13.136,0,0,1,46.3,44.7a11.467,11.467,0,0,1-1.793,1.255c-.148.083-.376.182-.644.3-.6.258-2,.864-1.895,1.276a2.831,2.831,0,0,0,.94,1.266c.139.128.285.26.432.393a7.628,7.628,0,0,1,2.42,3.106,3.329,3.329,0,0,1-.216,2.78c-.807,1.359-2.58,1.985-3.951,2.269.089.387.18.8.266,1.247.046.236.09.479.131.728.084.492.156,1.008.211,1.54.024.243.047.49.063.737.036.53.05,1.072.038,1.619-.006.246-.016.492-.033.74a13.572,13.572,0,0,1-.2,1.552c-.006.035-.012.071-.019.108-.041.209-.088.415-.137.617a12.8,12.8,0,0,1-.5,1.563q-.137.348-.291.682a14.126,14.126,0,0,1-.725,1.373H60.377V55.962A11.457,11.457,0,0,1,55,57.444" transform="translate(964.333 -664.123)" fill="#fff"/>
    <g id="Raggruppa_29" data-name="Raggruppa 29" transform="translate(1034.711 -632.789)">
      <g id="Raggruppa_28" data-name="Raggruppa 28" transform="translate(0.618 0)">
        <path id="Tracciato_6" data-name="Tracciato 6" d="M133.583,33.1a4.246,4.246,0,0,0,2.149-3.766c0-2.006-.908-4.394-5.231-4.394h-7.495V42.274h7.26c3.707,0,5.666-1.828,5.666-5.284a4.016,4.016,0,0,0-2.349-3.892m-8.076-5.831h4.915c2.472,0,2.789,1.142,2.789,2.138,0,.628,0,2.542-5,2.991l-.6.055v2.063h1.56c4.187,0,4.187,1.82,4.187,2.506,0,2.02-.99,2.921-3.212,2.921h-4.635Z" transform="translate(-123.006 -24.937)" fill="#fff"/>
        <path id="Tracciato_7" data-name="Tracciato 7" d="M158.232,33.618c-3.9,0-5.96,2.217-5.96,6.41,0,4.366,2.325,6.674,6.724,6.674a11.2,11.2,0,0,0,3.787-.6l.438-.159V43.534l-.887.318a9.9,9.9,0,0,1-3.339.518c-2.635,0-3.982-1.05-4.193-3.29h8.861l.035-.625c.017-.287.022-.562.022-.827,0-4.969-2.983-6.01-5.489-6.01M154.84,38.7c.29-1.885,1.381-2.77,3.391-2.77,1.854,0,2.8.86,3,2.77Z" transform="translate(-137.909 -29.358)" fill="#fff"/>
        <path id="Tracciato_8" data-name="Tracciato 8" d="M185.178,33.619a8.074,8.074,0,0,0-3.854,1.052l-.1-1.052h-2.105V46.7h2.5v-9.53A6.269,6.269,0,0,1,185.125,36c2.209,0,2.507.991,2.507,1.96V46.7h2.5v-8.71c0-2-.858-4.374-4.952-4.374" transform="translate(-151.58 -29.359)" fill="#fff"/>
        <path id="Tracciato_9" data-name="Tracciato 9" d="M211.029,33.618c-3.9,0-5.96,2.217-5.96,6.41,0,4.366,2.324,6.674,6.721,6.674a11.224,11.224,0,0,0,3.788-.6l.438-.159V43.534l-.886.318a9.913,9.913,0,0,1-3.34.518c-2.632,0-3.977-1.05-4.189-3.29h8.854l.037-.622c.018-.289.028-.563.028-.83,0-4.969-2.985-6.01-5.492-6.01M207.638,38.7c.289-1.885,1.379-2.77,3.391-2.77,1.853,0,2.8.86,3,2.77Z" transform="translate(-164.792 -29.358)" fill="#fff"/>
        <path id="Tracciato_10" data-name="Tracciato 10" d="M236.54,39h-1.5c-1.632,0-1.857-.65-1.857-1.352,0-.462,0-1.691,3.054-1.691a11.194,11.194,0,0,1,3.63.633l.877.3V34.344l-.48-.136a14.632,14.632,0,0,0-4.027-.589c-4.593,0-5.557,2.19-5.557,4.027,0,1.419.567,3.8,4.359,3.8h1.5c2.081,0,2.081.868,2.081,1.239,0,.461,0,1.688-3.044,1.688a11.012,11.012,0,0,1-3.635-.637l-.88-.3v2.552l.48.137a14.656,14.656,0,0,0,4.035.585c4.583,0,5.544-2.187,5.544-4.02,0-1.681-.794-3.686-4.581-3.686" transform="translate(-177.834 -29.359)" fill="#fff"/>
        <path id="Tracciato_11" data-name="Tracciato 11" d="M260.091,39h-1.5c-1.634,0-1.859-.65-1.859-1.352,0-.462,0-1.691,3.057-1.691a11.2,11.2,0,0,1,3.627.633l.877.3V34.344l-.481-.136a14.609,14.609,0,0,0-4.024-.589c-4.6,0-5.559,2.19-5.559,4.027,0,1.419.568,3.8,4.362,3.8h1.5c2.079,0,2.079.836,2.079,1.239,0,.461,0,1.688-3.042,1.688a11.073,11.073,0,0,1-3.639-.637l-.878-.3v2.55l.481.137a14.676,14.676,0,0,0,4.036.585c4.581,0,5.544-2.187,5.544-4.02,0-1.681-.794-3.686-4.581-3.686" transform="translate(-189.825 -29.359)" fill="#fff"/>
        <path id="Tracciato_12" data-name="Tracciato 12" d="M283.835,33.618c-3.9,0-5.962,2.217-5.962,6.41,0,4.366,2.324,6.674,6.722,6.674a11.181,11.181,0,0,0,3.787-.6l.44-.159V43.534l-.886.318a9.927,9.927,0,0,1-3.341.518c-2.631,0-3.977-1.05-4.189-3.29h8.866l.031-.631c.013-.285.02-.557.02-.821,0-4.969-2.983-6.01-5.489-6.01M280.444,38.7c.286-1.885,1.377-2.77,3.391-2.77,1.854,0,2.8.86,2.995,2.77Z" transform="translate(-201.824 -29.358)" fill="#fff"/>
        <path id="Tracciato_13" data-name="Tracciato 13" d="M306.926,34.816l-.09-1.2h-2.117V46.7h2.5V37.514a4,4,0,0,1,3.089-1.629h.663V33.618h-.663a5.46,5.46,0,0,0-3.383,1.2" transform="translate(-215.52 -29.358)" fill="#fff"/>
        <path id="Tracciato_14" data-name="Tracciato 14" d="M324.058,33.618c-3.9,0-5.961,2.217-5.961,6.41,0,4.366,2.326,6.674,6.725,6.674a11.211,11.211,0,0,0,3.786-.6l.44-.159V43.535l-.887.317a9.937,9.937,0,0,1-3.339.518c-2.633,0-3.98-1.05-4.193-3.29h8.859l.035-.625c.018-.287.023-.562.023-.827,0-4.969-2.985-6.01-5.489-6.01M320.665,38.7c.283-1.91,1.352-2.77,3.393-2.77,1.857,0,2.8.86,3,2.77Z" transform="translate(-222.345 -29.358)" fill="#fff"/>
      </g>
      <g id="Raggruppa_27" data-name="Raggruppa 27" transform="translate(0 20.271)">
        <path id="Tracciato_15" data-name="Tracciato 15" d="M129.27,66.225c-4.991,0-7.522,2.381-7.522,7.077,0,4.956,2.531,7.469,7.522,7.469a13.58,13.58,0,0,0,3.971-.594l.116-.036V78.915l-.212.064a12.6,12.6,0,0,1-3.679.581c-4.278,0-6.358-2.048-6.358-6.258,0-3.948,2.08-5.867,6.358-5.867a12.641,12.641,0,0,1,3.679.58l.212.065V66.853l-.117-.036a13.623,13.623,0,0,0-3.97-.592" transform="translate(-121.748 -66.225)" fill="#fff"/>
        <path id="Tracciato_16" data-name="Tracciato 16" d="M155.77,70.146a7.046,7.046,0,0,0-3.532.994V66.419H150.88V80.775h1.358V72.625a5.966,5.966,0,0,1,3.485-1.226c1.755,0,2.608.76,2.608,2.325v7.052h1.359V74.146c0-2.654-1.32-4-3.92-4" transform="translate(-136.584 -66.324)" fill="#fff"/>
        <rect id="Rettangolo_2" data-name="Rettangolo 2" width="1.36" height="10.629" transform="translate(26.124 3.824)" fill="#fff"/>
        <path id="Tracciato_17" data-name="Tracciato 17" d="M185.071,75.517l-.112-1.49h-1.05V84.656h1.359V76.87a4.006,4.006,0,0,1,3.118-1.689h.164V74.027h-.164a4.64,4.64,0,0,0-3.316,1.49" transform="translate(-153.408 -70.203)" fill="#fff"/>
        <path id="Tracciato_18" data-name="Tracciato 18" d="M200.584,73.834c-3.3,0-4.97,1.821-4.97,5.412.017,3.584,1.689,5.4,4.97,5.4,3.3,0,4.969-1.817,4.969-5.4s-1.672-5.411-4.969-5.411m0,9.608c-2.428,0-3.609-1.387-3.609-4.24,0-2.8,1.181-4.159,3.609-4.159S204.2,76.4,204.2,79.2c0,2.853-1.182,4.24-3.612,4.24" transform="translate(-159.362 -70.104)" fill="#fff"/>
        <path id="Tracciato_19" data-name="Tracciato 19" d="M224.746,74.028a17.024,17.024,0,0,0-3.982.431l-.125.031V88.382H222V84.22a10.229,10.229,0,0,0,2.72.437c3.414,0,5.145-1.873,5.145-5.566,0-3.36-1.722-5.063-5.115-5.063M222,75.491a19.183,19.183,0,0,1,2.731-.21c2.562,0,3.808,1.238,3.808,3.788,0,2.877-1.253,4.276-3.83,4.276A8.75,8.75,0,0,1,222,82.862Z" transform="translate(-172.105 -70.197)" fill="#fff"/>
        <path id="Tracciato_20" data-name="Tracciato 20" d="M245.363,75.519l-.11-1.491H244.2V84.657h1.359V76.871a4.007,4.007,0,0,1,3.119-1.69h.164V74.028h-.164a4.643,4.643,0,0,0-3.317,1.491" transform="translate(-184.11 -70.203)" fill="#fff"/>
        <path id="Tracciato_21" data-name="Tracciato 21" d="M260.068,74.028a12.058,12.058,0,0,0-3.4.5l-.118.034v1.226l.209-.061a11.9,11.9,0,0,1,3.309-.486c1.887,0,2.805.722,2.805,2.2v1.08a25.515,25.515,0,0,0-2.911-.175c-2.817,0-4.245,1.088-4.245,3.234,0,2.041,1.258,3.077,3.743,3.077a8.1,8.1,0,0,0,3.631-.942l.218.942h.924V77.388c0-2.23-1.4-3.36-4.165-3.36m-.106,5.528a25.374,25.374,0,0,1,2.911.176v2.779a6.752,6.752,0,0,1-3.413.935c-1.607,0-2.387-.62-2.387-1.9,0-1.341.944-1.993,2.889-1.993" transform="translate(-189.968 -70.203)" fill="#fff"/>
        <path id="Tracciato_22" data-name="Tracciato 22" d="M279.79,70.628h-1.038v9.355c0,1.95.9,2.94,2.676,2.94h1.654v-1.21h-1.671c-.895,0-1.329-.61-1.329-1.867V73.5h3V72.293h-3.1Z" transform="translate(-201.654 -68.47)" fill="#fff"/>
        <rect id="Rettangolo_3" data-name="Rettangolo 3" width="1.358" height="10.629" transform="translate(83.484 3.824)" fill="#fff"/>
        <path id="Tracciato_23" data-name="Tracciato 23" d="M305.056,74.028c-3.557,0-5.359,1.722-5.359,5.12,0,3.655,1.8,5.509,5.359,5.509a12.387,12.387,0,0,0,2.786-.3l.127-.028V83.112l-.2.042a12.71,12.71,0,0,1-2.616.292c-2.7,0-4.006-1.407-4.006-4.3,0-2.631,1.31-3.911,4.006-3.911a12.755,12.755,0,0,1,2.616.292l.2.042V74.358l-.127-.029a12.473,12.473,0,0,0-2.786-.3" transform="translate(-212.339 -70.203)" fill="#fff"/>
        <path id="Tracciato_24" data-name="Tracciato 24" d="M324.783,73.834c-3.3,0-4.971,1.821-4.971,5.412s1.686,5.4,4.971,5.4,4.969-1.817,4.969-5.4-1.672-5.411-4.969-5.411m0,9.608c-2.431,0-3.613-1.387-3.613-4.24,0-2.8,1.182-4.159,3.613-4.159s3.611,1.36,3.611,4.159c0,2.853-1.181,4.24-3.611,4.24" transform="translate(-222.601 -70.104)" fill="#fff"/>
      </g>
    </g>
  </g>
</svg>
