<svg xmlns="http://www.w3.org/2000/svg" width="71.66" height="70.125" viewBox="0 0 71.66 70.125">
  <g id="conference_8303615" transform="translate(-2.47 -4.71)">
    <g id="Raggruppa_2097" data-name="Raggruppa 2097" transform="translate(8.181 51.531)">
      <g id="Raggruppa_2096" data-name="Raggruppa 2096">
        <path id="Tracciato_413" data-name="Tracciato 413" d="M60.363,65.524H14.091a1.243,1.243,0,0,1-1.2-.911l-5.8-20.808A1.259,1.259,0,0,1,8.3,42.22h58.03a1.265,1.265,0,0,1,1,.5,1.237,1.237,0,0,1,.2,1.1L61.573,64.626A1.258,1.258,0,0,1,60.363,65.524Zm-45.323-2.5H59.426l5.243-18.311H9.935Z" transform="translate(-7.045 -42.22)" fill="#fff"/>
      </g>
    </g>
    <g id="Raggruppa_2099" data-name="Raggruppa 2099" transform="translate(2.47 43.817)">
      <g id="Raggruppa_2098" data-name="Raggruppa 2098">
        <path id="Tracciato_414" data-name="Tracciato 414" d="M72.882,46.25h-5.43a1.248,1.248,0,1,1,0-2.5h4.182V38.536H4.966v5.218H9.423a1.248,1.248,0,1,1,0,2.5h-5.7A1.252,1.252,0,0,1,2.47,45V37.288A1.252,1.252,0,0,1,3.718,36.04H72.882a1.252,1.252,0,0,1,1.248,1.248V45A1.244,1.244,0,0,1,72.882,46.25Z" transform="translate(-2.47 -36.04)" fill="#fff"/>
      </g>
    </g>
    <g id="Raggruppa_2101" data-name="Raggruppa 2101" transform="translate(27.272 4.71)">
      <g id="Raggruppa_2100" data-name="Raggruppa 2100">
        <path id="Tracciato_415" data-name="Tracciato 415" d="M33.512,30.249A11.184,11.184,0,0,1,22.34,19.077v-3.2a11.172,11.172,0,0,1,22.343,0v3.2A11.192,11.192,0,0,1,33.512,30.249Zm0-23.042a8.689,8.689,0,0,0-8.675,8.675v3.2a8.675,8.675,0,1,0,17.35,0v-3.2a8.7,8.7,0,0,0-8.675-8.675Z" transform="translate(-22.34 -4.71)" fill="#fff"/>
      </g>
    </g>
    <g id="Raggruppa_2103" data-name="Raggruppa 2103" transform="translate(27.022 25.223)">
      <g id="Raggruppa_2102" data-name="Raggruppa 2102">
        <path id="Tracciato_416" data-name="Tracciato 416" d="M30.678,34.058a1.22,1.22,0,0,1-.849-.337l-7.29-6.74a1.25,1.25,0,0,1-.4-.886,1.2,1.2,0,0,1,.35-.9l3.557-3.67a1.245,1.245,0,1,1,1.785,1.735l-2.659,2.746,4.893,4.531,1.748-5.729a1.248,1.248,0,1,1,2.384.736l-2.334,7.639a1.231,1.231,0,0,1-.874.836,1.188,1.188,0,0,1-.312.037Z" transform="translate(-22.139 -21.144)" fill="#fff"/>
      </g>
    </g>
    <g id="Raggruppa_2105" data-name="Raggruppa 2105" transform="translate(37.429 25.427)">
      <g id="Raggruppa_2104" data-name="Raggruppa 2104">
        <path id="Tracciato_417" data-name="Tracciato 417" d="M34.063,34.018a1.439,1.439,0,0,1-.325-.037,1.253,1.253,0,0,1-.874-.836L30.531,25.5a1.248,1.248,0,0,1,2.384-.736L34.662,30.5l4.893-4.531L37.1,23.42a1.245,1.245,0,1,1,1.785-1.735l3.37,3.47a1.2,1.2,0,0,1,.349.9,1.273,1.273,0,0,1-.4.886l-7.29,6.74a1.2,1.2,0,0,1-.849.337Z" transform="translate(-30.477 -21.307)" fill="#fff"/>
      </g>
    </g>
    <g id="Raggruppa_2107" data-name="Raggruppa 2107" transform="translate(22.616 28.901)">
      <g id="Raggruppa_2106" data-name="Raggruppa 2106">
        <path id="Tracciato_418" data-name="Tracciato 418" d="M19.858,41.515a1.252,1.252,0,0,1-1.248-1.248V29.208a1.224,1.224,0,0,1,.424-.936L23.453,24.4A1.247,1.247,0,0,1,25.1,26.274l-3.994,3.5v10.5a1.252,1.252,0,0,1-1.248,1.248Z" transform="translate(-18.61 -24.09)" fill="#fff"/>
      </g>
    </g>
    <g id="Raggruppa_2109" data-name="Raggruppa 2109" transform="translate(47.052 28.896)">
      <g id="Raggruppa_2108" data-name="Raggruppa 2108">
        <path id="Tracciato_419" data-name="Tracciato 419" d="M43.858,41.516a1.252,1.252,0,0,1-1.248-1.248V29.77l-3.994-3.5A1.247,1.247,0,1,1,40.263,24.4l4.419,3.869a1.224,1.224,0,0,1,.424.936V40.268A1.252,1.252,0,0,1,43.858,41.516Z" transform="translate(-38.187 -24.087)" fill="#fff"/>
      </g>
    </g>
    <g id="Raggruppa_2114" data-name="Raggruppa 2114" transform="translate(7.737 25.719)">
      <g id="Raggruppa_2111" data-name="Raggruppa 2111" transform="translate(0 7.091)">
        <g id="Raggruppa_2110" data-name="Raggruppa 2110">
          <path id="Tracciato_420" data-name="Tracciato 420" d="M7.938,39.639A1.252,1.252,0,0,1,6.69,38.391V32.936a1.255,1.255,0,0,1,.337-.849L11.2,27.619a1.245,1.245,0,1,1,1.822,1.7L9.186,33.436V38.4a1.249,1.249,0,0,1-1.248,1.236Z" transform="translate(-6.69 -27.222)" fill="#fff"/>
        </g>
      </g>
      <g id="Raggruppa_2113" data-name="Raggruppa 2113" transform="translate(3.564)">
        <g id="Raggruppa_2112" data-name="Raggruppa 2112">
          <path id="Tracciato_421" data-name="Tracciato 421" d="M13.458,31.65a3.865,3.865,0,0,1-2.434-.861,3.927,3.927,0,0,1-.624-5.517l1.8-2.247a3.927,3.927,0,0,1,6.154,4.881l-1.8,2.247a3.906,3.906,0,0,1-2.634,1.46A3,3,0,0,1,13.458,31.65Zm-.886-2.808a1.441,1.441,0,0,0,2.01-.225l1.8-2.247a1.392,1.392,0,0,0,.3-1.049,1.456,1.456,0,0,0-.524-.961,1.377,1.377,0,0,0-1.049-.3,1.456,1.456,0,0,0-.961.524l-1.8,2.247A1.44,1.44,0,0,0,12.572,28.842Z" transform="translate(-9.545 -21.541)" fill="#fff"/>
        </g>
      </g>
    </g>
    <g id="Raggruppa_2119" data-name="Raggruppa 2119" transform="translate(57.027 25.728)">
      <g id="Raggruppa_2116" data-name="Raggruppa 2116" transform="translate(6.546 7.09)">
        <g id="Raggruppa_2115" data-name="Raggruppa 2115">
          <path id="Tracciato_422" data-name="Tracciato 422" d="M56.837,39.638a1.252,1.252,0,0,1-1.248-1.248V33.434l-3.832-4.107a1.245,1.245,0,0,1,1.822-1.7L57.748,32.1a1.278,1.278,0,0,1,.337.849V38.4A1.249,1.249,0,0,1,56.837,39.638Z" transform="translate(-51.422 -27.228)" fill="#fff"/>
        </g>
      </g>
      <g id="Raggruppa_2118" data-name="Raggruppa 2118">
        <g id="Raggruppa_2117" data-name="Raggruppa 2117">
          <path id="Tracciato_423" data-name="Tracciato 423" d="M51.9,31.649a3.907,3.907,0,0,1-3.071-1.485l-1.8-2.247a3.886,3.886,0,0,1-.824-2.883,3.931,3.931,0,0,1,6.978-2.01l1.8,2.247a3.938,3.938,0,0,1-.624,5.517A3.988,3.988,0,0,1,51.9,31.649Zm-1.785-7.614a1.4,1.4,0,0,0-.886.312,1.428,1.428,0,0,0-.237,2.01l1.8,2.247a1.426,1.426,0,1,0,2.234-1.772l-1.785-2.247A1.442,1.442,0,0,0,50.112,24.034Z" transform="translate(-46.178 -21.548)" fill="#fff"/>
        </g>
      </g>
    </g>
  </g>
</svg>
