<svg xmlns="http://www.w3.org/2000/svg" width="70.654" height="68.466" viewBox="0 0 70.654 68.466">
  <g id="snowing_136568" transform="translate(0.001 -0.815)">
    <path id="Tracciato_425" data-name="Tracciato 425" d="M45.123,30.84a1.341,1.341,0,0,0-1.833-.491l-3.8,2.192V28.157a1.342,1.342,0,1,0-2.683,0v4.385l-3.8-2.192a1.342,1.342,0,0,0-1.342,2.324l3.8,2.192-3.8,2.192a1.342,1.342,0,1,0,1.342,2.324l3.8-2.192v4.385a1.342,1.342,0,0,0,2.683,0V37.189l3.8,2.192a1.342,1.342,0,1,0,1.342-2.324l-3.8-2.192,3.8-2.192A1.342,1.342,0,0,0,45.123,30.84Z" transform="translate(10.592 8.883)" fill="#fff"/>
    <path id="Tracciato_426" data-name="Tracciato 426" d="M24.123,30.84a1.341,1.341,0,0,0-1.833-.491l-3.8,2.192V28.157a1.342,1.342,0,1,0-2.683,0v4.385l-3.8-2.192a1.342,1.342,0,1,0-1.342,2.324l3.8,2.192-3.8,2.192a1.342,1.342,0,1,0,1.342,2.324l3.8-2.192v4.385a1.342,1.342,0,0,0,2.683,0V37.189l3.8,2.192a1.342,1.342,0,0,0,1.342-2.324l-3.8-2.192,3.8-2.192A1.342,1.342,0,0,0,24.123,30.84Z" transform="translate(3.417 8.883)" fill="#fff"/>
    <path id="Tracciato_427" data-name="Tracciato 427" d="M45.124,4.84a1.341,1.341,0,0,0-1.833-.491l-3.8,2.192V2.157a1.342,1.342,0,1,0-2.683,0V6.541l-3.8-2.192a1.342,1.342,0,1,0-1.342,2.324l3.8,2.192-3.8,2.192a1.342,1.342,0,1,0,1.342,2.324l3.8-2.192v4.385a1.342,1.342,0,1,0,2.683,0V11.189l3.8,2.192a1.342,1.342,0,1,0,1.342-2.324l-3.8-2.192,3.8-2.192A1.341,1.341,0,0,0,45.124,4.84Z" transform="translate(10.591 0)" fill="#fff"/>
    <path id="Tracciato_428" data-name="Tracciato 428" d="M24.124,4.84a1.341,1.341,0,0,0-1.833-.491l-3.8,2.192V2.157a1.342,1.342,0,1,0-2.683,0V6.541l-3.8-2.192a1.342,1.342,0,1,0-1.342,2.324l3.8,2.192-3.8,2.192a1.342,1.342,0,1,0,1.342,2.324l3.8-2.192v4.385a1.342,1.342,0,1,0,2.683,0V11.189l3.8,2.192a1.342,1.342,0,1,0,1.342-2.324l-3.8-2.192,3.8-2.192A1.341,1.341,0,0,0,24.124,4.84Z" transform="translate(3.417 0)" fill="#fff"/>
    <path id="Tracciato_429" data-name="Tracciato 429" d="M35.124,43.871a1.341,1.341,0,0,0-1.833-.491l-3.8,2.192V41.188a1.342,1.342,0,0,0-2.683,0v4.385l-3.8-2.192A1.342,1.342,0,0,0,21.671,45.7l3.8,2.192-3.8,2.192a1.342,1.342,0,1,0,1.342,2.324l3.8-2.192V54.6a1.342,1.342,0,0,0,2.683,0V50.22l3.8,2.192a1.342,1.342,0,1,0,1.342-2.324l-3.8-2.192,3.8-2.192A1.341,1.341,0,0,0,35.124,43.871Z" transform="translate(7.175 13.335)" fill="#fff"/>
    <path id="Tracciato_430" data-name="Tracciato 430" d="M14.124,43.871a1.341,1.341,0,0,0-1.833-.491l-3.8,2.192V41.188a1.342,1.342,0,0,0-2.683,0v4.385l-3.8-2.192A1.342,1.342,0,0,0,.671,45.7l3.8,2.192-3.8,2.192a1.342,1.342,0,1,0,1.342,2.324l3.8-2.192V54.6a1.342,1.342,0,0,0,2.683,0V50.22l3.8,2.192a1.342,1.342,0,1,0,1.342-2.324L9.835,47.9l3.8-2.192A1.341,1.341,0,0,0,14.124,43.871Z" transform="translate(0 13.335)" fill="#fff"/>
    <path id="Tracciato_431" data-name="Tracciato 431" d="M56.124,43.871a1.341,1.341,0,0,0-1.833-.491l-3.8,2.192V41.188a1.342,1.342,0,0,0-2.683,0v4.385l-3.8-2.192A1.342,1.342,0,0,0,42.671,45.7l3.8,2.192-3.8,2.192a1.342,1.342,0,1,0,1.342,2.324l3.8-2.192V54.6a1.342,1.342,0,0,0,2.683,0V50.22l3.8,2.192a1.342,1.342,0,1,0,1.342-2.324l-3.8-2.192,3.8-2.192A1.341,1.341,0,0,0,56.124,43.871Z" transform="translate(14.349 13.335)" fill="#fff"/>
    <path id="Tracciato_432" data-name="Tracciato 432" d="M21.18,25.921a1.342,1.342,0,0,0,1.833.491l3.8-2.192V28.6a1.342,1.342,0,0,0,2.683,0V24.22l3.8,2.192a1.342,1.342,0,1,0,1.342-2.324l-3.8-2.192,3.8-2.192A1.342,1.342,0,1,0,33.29,17.38l-3.8,2.192V15.188a1.342,1.342,0,1,0-2.683,0v4.385l-3.8-2.192A1.342,1.342,0,1,0,21.671,19.7l3.8,2.192-3.8,2.192A1.342,1.342,0,0,0,21.18,25.921Z" transform="translate(7.175 4.452)" fill="#fff"/>
    <path id="Tracciato_433" data-name="Tracciato 433" d="M.18,25.921a1.342,1.342,0,0,0,1.833.491l3.8-2.192V28.6a1.342,1.342,0,0,0,2.683,0V24.22l3.8,2.192a1.342,1.342,0,1,0,1.342-2.324L9.834,21.9l3.8-2.192A1.342,1.342,0,1,0,12.29,17.38l-3.8,2.192V15.188a1.342,1.342,0,1,0-2.683,0v4.385l-3.8-2.192A1.342,1.342,0,1,0,.671,19.7l3.8,2.192-3.8,2.192A1.342,1.342,0,0,0,.18,25.921Z" transform="translate(0 4.452)" fill="#fff"/>
    <path id="Tracciato_434" data-name="Tracciato 434" d="M55.633,24.088l-3.8-2.192,3.8-2.192a1.342,1.342,0,0,0-1.342-2.324l-3.8,2.192V15.188a1.342,1.342,0,0,0-2.683,0v4.385l-3.8-2.192A1.342,1.342,0,0,0,42.671,19.7l3.8,2.192-3.8,2.192a1.342,1.342,0,1,0,1.342,2.324l3.8-2.192V28.6a1.342,1.342,0,1,0,2.683,0V24.22l3.8,2.192a1.342,1.342,0,0,0,1.343-2.324Z" transform="translate(14.349 4.452)" fill="#fff"/>
  </g>
</svg>
