<svg xmlns="http://www.w3.org/2000/svg" width="70.131" height="70.125" viewBox="0 0 70.131 70.125">
  <g id="internet_814224" transform="translate(0 -0.022)">
    <g id="Raggruppa_2120" data-name="Raggruppa 2120" transform="translate(0 0.022)">
      <path id="Tracciato_424" data-name="Tracciato 424" d="M35.025.022a35.117,35.117,0,0,0-3.763.2,33.1,33.1,0,0,0-3.394.542q-.324.068-.648.143a35.067,35.067,0,0,0-17.3,9.686c-.439.449-1.287,1.388-1.287,1.388a35.106,35.106,0,0,0,51.5,47.679q.659-.674,1.287-1.388A35.1,35.1,0,0,0,35.025.022ZM11.482,12.35c.185-.192.377-.376.565-.562.218-.214.434-.429.656-.637.2-.183.4-.358.6-.536.226-.2.451-.4.682-.593.2-.172.413-.337.621-.5.234-.187.468-.374.709-.555.213-.16.429-.316.647-.468.242-.173.486-.351.733-.513.221-.15.445-.295.669-.439.25-.16.5-.318.756-.468q.343-.2.69-.4.389-.221.781-.432.351-.187.7-.366c.267-.135.536-.264.806-.392.234-.111.477-.222.719-.328l.832-.351c.242-.1.483-.2.728-.29.283-.108.57-.208.857-.309.245-.085.489-.171.737-.252.291-.094.585-.18.88-.266.247-.071.491-.145.74-.212.095-.025.19-.044.284-.069a29.036,29.036,0,0,0-7.479,12.144,39.3,39.3,0,0,1-8.018-3.086C11.415,12.426,11.448,12.385,11.482,12.35ZM9.8,14.234a40.657,40.657,0,0,0,8.881,3.534,60.724,60.724,0,0,0-2.363,16.19H2.286A32.7,32.7,0,0,1,9.8,14.234Zm0,41.788A32.7,32.7,0,0,1,2.286,36.3H16.317a60.718,60.718,0,0,0,2.363,16.19A40.685,40.685,0,0,0,9.8,56.022ZM26.582,66.783c-.236-.06-.481-.137-.724-.208-.3-.087-.593-.173-.886-.268-.247-.08-.49-.165-.734-.25-.288-.1-.576-.2-.86-.31-.243-.092-.483-.19-.724-.288l-.837-.351q-.358-.158-.713-.325c-.273-.129-.544-.26-.819-.4-.234-.117-.468-.234-.7-.362-.264-.142-.527-.287-.789-.436-.234-.13-.456-.263-.682-.4-.257-.154-.51-.314-.763-.476-.222-.142-.445-.286-.664-.433-.249-.169-.5-.344-.741-.52-.214-.153-.428-.307-.639-.468-.242-.183-.48-.371-.716-.561-.207-.165-.413-.329-.616-.5-.234-.194-.46-.4-.687-.6-.2-.177-.4-.351-.593-.531-.224-.208-.44-.425-.658-.639-.188-.186-.38-.37-.565-.561-.034-.036-.067-.074-.1-.109a39.275,39.275,0,0,1,8.018-3.087,29.043,29.043,0,0,0,7.479,12.144C26.773,66.829,26.677,66.809,26.582,66.783ZM33.855,67.8c-5.007-.711-9.4-5.938-12.158-13.655a59.469,59.469,0,0,1,12.158-1.431Zm0-17.427a61.625,61.625,0,0,0-12.893,1.538,58.541,58.541,0,0,1-2.3-15.614h15.2V50.374Zm0-16.417h-15.2a58.529,58.529,0,0,1,2.3-15.614,61.646,61.646,0,0,0,12.893,1.538Zm0-16.417A59.406,59.406,0,0,1,21.7,16.11C24.458,8.392,28.847,3.166,33.855,2.455Zm26.4-3.307a32.7,32.7,0,0,1,7.513,19.724H53.733a60.718,60.718,0,0,0-2.363-16.19A40.7,40.7,0,0,0,60.251,14.234ZM43.459,3.472c.246.061.49.138.734.209.3.087.593.173.886.268.247.08.49.165.734.25.288.1.576.2.86.31.243.092.483.19.724.288l.837.351q.358.158.713.325c.273.129.544.26.819.4.234.117.468.234.7.362.264.142.527.287.789.436.234.13.456.263.682.4.257.154.51.314.763.476.222.142.445.286.664.433.249.169.495.343.74.518.215.153.429.308.641.468.241.181.477.37.715.559.206.164.413.328.616.5.234.194.46.4.687.6.2.177.4.351.593.531.224.208.44.425.658.639.188.186.38.37.565.561.034.036.067.074.1.109a39.276,39.276,0,0,1-8.018,3.087A29.041,29.041,0,0,0,43.173,3.4C43.268,3.426,43.364,3.446,43.459,3.472ZM36.2,2.455c5.007.711,9.4,5.938,12.158,13.655A59.468,59.468,0,0,1,36.2,17.541Zm0,17.427a61.625,61.625,0,0,0,12.893-1.538,58.541,58.541,0,0,1,2.3,15.614H36.2Zm0,16.417h15.2a58.529,58.529,0,0,1-2.3,15.614h0A61.644,61.644,0,0,0,36.2,50.374Zm0,31.5V52.715a59.406,59.406,0,0,1,12.158,1.431C45.592,61.864,41.2,67.09,36.2,67.8Zm22.373-9.9c-.185.191-.376.374-.564.561-.218.214-.435.431-.659.639-.194.181-.394.351-.593.532-.227.2-.453.4-.685.6-.2.171-.413.336-.621.5-.234.187-.468.374-.709.555-.213.16-.429.316-.647.468-.242.173-.486.351-.733.513-.221.15-.445.295-.669.438q-.376.242-.757.468c-.234.137-.458.27-.688.4q-.389.221-.782.432-.351.187-.7.366c-.267.135-.536.264-.806.392-.234.111-.477.222-.718.328l-.832.351c-.242.1-.483.2-.727.289-.286.109-.572.211-.86.31-.243.085-.487.171-.734.25-.293.095-.585.181-.884.267-.245.073-.49.145-.737.212-.095.025-.19.044-.284.069A29.036,29.036,0,0,0,50.655,54.7a39.3,39.3,0,0,1,8.018,3.086C58.635,57.83,58.6,57.871,58.568,57.906Zm1.683-1.884a40.657,40.657,0,0,0-8.881-3.534A60.724,60.724,0,0,0,53.733,36.3H67.764A32.694,32.694,0,0,1,60.251,56.022Z" transform="translate(0 -0.022)" fill="#fff"/>
    </g>
  </g>
</svg>
