<svg xmlns="http://www.w3.org/2000/svg" width="51.657" height="74.257" viewBox="0 0 51.657 74.257">
  <path id="braille-o" d="M15.3,25.828a11.3,11.3,0,1,0,11.3,11.3A11.312,11.312,0,0,0,15.3,25.828Zm0,19.371a8.071,8.071,0,1,1,8.071-8.071A8.081,8.081,0,0,1,15.3,45.2Zm29.057,6.457a11.3,11.3,0,1,0,11.3,11.3A11.312,11.312,0,0,0,44.357,51.657Zm0,19.371a8.071,8.071,0,1,1,8.071-8.071A8.081,8.081,0,0,1,44.357,71.028Zm0-48.428a11.3,11.3,0,1,0-11.3-11.3A11.312,11.312,0,0,0,44.357,22.6Zm0-19.371A8.071,8.071,0,1,1,36.286,11.3,8.081,8.081,0,0,1,44.357,3.229ZM15.3,0A11.3,11.3,0,1,0,26.6,11.3,11.312,11.312,0,0,0,15.3,0Zm0,3.229a8.163,8.163,0,0,1,.894.052L7.28,12.194a8.163,8.163,0,0,1-.052-.894A8.081,8.081,0,0,1,15.3,3.229ZM8.462,15.578,19.581,4.459a8.145,8.145,0,0,1,2.56,2.56L11.022,18.138A8.145,8.145,0,0,1,8.462,15.578ZM15.3,19.371a8.163,8.163,0,0,1-.894-.052l8.914-8.914a8.163,8.163,0,0,1,.052.894A8.081,8.081,0,0,1,15.3,19.371Zm29.057,6.457a11.3,11.3,0,1,0,11.3,11.3A11.312,11.312,0,0,0,44.357,25.828Zm0,3.229a8.164,8.164,0,0,1,.894.052l-8.914,8.914a8.163,8.163,0,0,1-.052-.894,8.081,8.081,0,0,1,8.071-8.071ZM37.519,41.406,48.638,30.287a8.145,8.145,0,0,1,2.56,2.56L40.079,43.966a8.145,8.145,0,0,1-2.56-2.56ZM44.357,45.2a8.164,8.164,0,0,1-.894-.052l8.914-8.914a8.055,8.055,0,0,1-8.02,8.966ZM15.3,51.657a11.3,11.3,0,1,0,11.3,11.3A11.312,11.312,0,0,0,15.3,51.657Zm0,3.229a8.163,8.163,0,0,1,.894.052L7.28,63.851a8.163,8.163,0,0,1-.052-.894A8.081,8.081,0,0,1,15.3,54.885ZM8.462,67.234,19.581,56.115a8.145,8.145,0,0,1,2.56,2.56L11.022,69.795A8.145,8.145,0,0,1,8.462,67.234ZM15.3,71.028a8.163,8.163,0,0,1-.894-.052l8.914-8.914a8.163,8.163,0,0,1,.052.894A8.081,8.081,0,0,1,15.3,71.028Z" transform="translate(-4)" fill="#fff"/>
</svg>
