<svg xmlns="http://www.w3.org/2000/svg" width="77.134" height="75.958" viewBox="0 0 77.134 75.958">
  <path id="bahai" d="M52.012,76.2,38.62,65.511,25.228,76.2,21.841,59.406,4.707,58.983l8.2-15.042L.055,32.606l15.956-6.254L13.45,9.409l16.243,5.463L38.62.246l8.93,14.625L63.793,9.409l-2.56,16.943,15.956,6.254L64.336,43.944l8.2,15.042-17.134.423L52.019,76.2ZM38.62,61.382l11.274,9,2.851-14.141,14.422-.352L60.261,43.221l10.822-9.54L57.649,28.418l2.157-14.264-13.673,4.6L38.617,6.445,31.1,18.755l-13.673-4.6,2.157,14.264L6.151,33.681l10.822,9.54L10.067,55.887l14.422.352L27.34,70.38l11.274-9Z" transform="translate(-0.055 -0.246)" fill="#fff"/>
</svg>
