<svg xmlns="http://www.w3.org/2000/svg" width="68.3" height="52.184" viewBox="0 0 68.3 52.184">
  <path id="quote_7350737" d="M9.239,53.164C5.4,48.943,3.1,44.338,3.1,36.664c0-13.43,9.593-25.325,23.023-31.464l3.453,4.988C16.914,17.095,14.228,25.92,13.46,31.676a11.379,11.379,0,0,1,7.29-1.151,13.4,13.4,0,0,1,12.279,13.43,15.14,15.14,0,0,1-3.837,9.593A12.727,12.727,0,0,1,19.6,57.384a15.092,15.092,0,0,1-10.36-4.221Zm38.371,0c-3.837-4.221-6.139-8.825-6.139-16.5,0-13.43,9.593-25.325,23.023-31.464l3.453,4.988C55.284,17.095,52.6,25.92,51.831,31.676a11.379,11.379,0,0,1,7.29-1.151A13.4,13.4,0,0,1,71.4,43.955a15.14,15.14,0,0,1-3.837,9.593c-2.3,2.686-5.756,3.837-9.593,3.837a15.092,15.092,0,0,1-10.36-4.221Z" transform="translate(71.4 57.384) rotate(180)"/>
</svg>
