<svg xmlns="http://www.w3.org/2000/svg" width="87.939" height="13.001" viewBox="0 0 87.939 13.001">
  <g id="Raggruppa_54" data-name="Raggruppa 54" transform="translate(-503.843 -990.827)">
    <path id="Icon_awesome-star-half-alt" data-name="Icon awesome-star-half-alt" d="M12.912,4.355,9.2,3.814,7.535.452a.815.815,0,0,0-1.46,0L4.413,3.813.7,4.354A.812.812,0,0,0,.246,5.74L2.935,8.355,2.3,12.049A.814.814,0,0,0,3.1,13a.8.8,0,0,0,.378-.1L6.8,11.161l3.325,1.744a.812.812,0,0,0,1.18-.855l-.636-3.694,2.689-2.615a.812.812,0,0,0-.45-1.386ZM9.821,7.483l-.46.447.109.632.5,2.881L7.372,10.082l-.568-.3V1.73L8.1,4.353l.284.575.635.092,2.9.422-2.1,2.041Z" transform="translate(578.173 990.828)" fill="#fff"/>
    <path id="Icon_awesome-star" data-name="Icon awesome-star" d="M7.5.451,5.846,3.813l-3.709.541A.813.813,0,0,0,1.688,5.74L4.371,8.354l-.635,3.694a.812.812,0,0,0,1.178.856L8.233,11.16,11.551,12.9a.813.813,0,0,0,1.178-.856l-.635-3.694L14.777,5.74a.813.813,0,0,0-.449-1.386l-3.709-.541L8.961.451A.813.813,0,0,0,7.5.451Z" transform="translate(558.149 990.828)" fill="#fff"/>
    <path id="Icon_awesome-star-2" data-name="Icon awesome-star" d="M7.5.451,5.846,3.813l-3.709.541A.813.813,0,0,0,1.688,5.74L4.371,8.354l-.635,3.694a.812.812,0,0,0,1.178.856L8.233,11.16,11.551,12.9a.813.813,0,0,0,1.178-.856l-.635-3.694L14.777,5.74a.813.813,0,0,0-.449-1.386l-3.709-.541L8.961.451A.813.813,0,0,0,7.5.451Z" transform="translate(539.567 990.828)" fill="#fff"/>
    <path id="Icon_awesome-star-3" data-name="Icon awesome-star" d="M7.5.451,5.846,3.813l-3.709.541A.813.813,0,0,0,1.688,5.74L4.371,8.354l-.635,3.694a.812.812,0,0,0,1.178.856L8.233,11.16,11.551,12.9a.813.813,0,0,0,1.178-.856l-.635-3.694L14.777,5.74a.813.813,0,0,0-.449-1.386l-3.709-.541L8.961.451A.813.813,0,0,0,7.5.451Z" transform="translate(520.984 990.828)" fill="#fff"/>
    <path id="Icon_awesome-star-4" data-name="Icon awesome-star" d="M7.5.451,5.846,3.813l-3.709.541A.813.813,0,0,0,1.688,5.74L4.371,8.354l-.635,3.694a.812.812,0,0,0,1.178.856L8.233,11.16,11.551,12.9a.813.813,0,0,0,1.178-.856l-.635-3.694L14.777,5.74a.813.813,0,0,0-.449-1.386l-3.709-.541L8.961.451A.813.813,0,0,0,7.5.451Z" transform="translate(502.402 990.828)" fill="#fff"/>
  </g>
</svg>
