<svg xmlns="http://www.w3.org/2000/svg" width="123.061" height="486.051" viewBox="0 0 123.061 486.051">
  <g id="Raggruppa_2093" data-name="Raggruppa 2093" transform="translate(-3465.28 14061.826)">
    <path id="Tracciato_119" data-name="Tracciato 119" d="M283.031,126.4c.884-.1.511-1.1-.371-.993-4.294.5-8.167,1.549-12.613,1.422a56.359,56.359,0,0,1-12.323-2.066c-.087-.021-.125.069-.059.1a29.393,29.393,0,0,0,11.7,2.878c4.839.268,8.971-.817,13.662-1.345" transform="translate(3257.207 -14091.229)" fill="#fff"/>
    <path id="Tracciato_120" data-name="Tracciato 120" d="M285.439,107.949c-5.041.771-8.839,2.5-14.253,1.939-2.03-.21-4.009-.579-6.056-.7-2.406-.144-6.836.473-8.188-1.418-.09-.127-.413-.076-.386.077.521,2.919,8.818,2.245,11.38,2.6a37.5,37.5,0,0,0,8.52.6c3.407-.271,6.163-1.329,9.3-2.246.706-.206.45-.969-.318-.851" transform="translate(3257.168 -14087.207)" fill="#fff"/>
    <path id="Tracciato_121" data-name="Tracciato 121" d="M272.2,96.043c4.743-.086,12.615.743,15.634-2.638.306-.342-.409-.624-.728-.314-2.711,2.623-10.794,2.037-14.906,2.152a23.335,23.335,0,0,1-13.8-3.563c-.092-.057-.262.018-.18.1,3.286,3.4,8.584,4.359,13.976,4.26" transform="translate(3257.227 -14083.428)" fill="#fff"/>
    <path id="Tracciato_122" data-name="Tracciato 122" d="M246.165,160.809a3.429,3.429,0,0,1,.211,2.038,2,2,0,0,1-2.428,1.062c-1.7-.44-2.563-2.261-2.842-3.44-.034-.144-.334-.164-.421-.04-.6.848.266,1.942.825,2.7a4.05,4.05,0,0,0,2.971,1.759,3.206,3.206,0,0,0,2.931-1.442,2.3,2.3,0,0,0-.559-2.852c-.246-.249-.781-.106-.687.214" transform="translate(3256.592 -14099.616)" fill="#fff"/>
    <path id="Tracciato_123" data-name="Tracciato 123" d="M294.592,182.938c.733.109,1.09-.553.5-.869-.573-.3-1.176-.474-1.4-1.026-.252-.629.209-1.09.537-1.629.078-.128-.058-.342-.286-.274-2.12.627-1.47,3.482.651,3.8" transform="translate(3258.462 -14104.042)" fill="#fff"/>
    <path id="Tracciato_124" data-name="Tracciato 124" d="M290.764,183.868c.428.086.877-.287.606-.582a5.939,5.939,0,0,1-1.335-1.663,4.6,4.6,0,0,1-.243-2.732c.028-.142-.231-.2-.3-.06a4.557,4.557,0,0,0-.355,3.141,2.24,2.24,0,0,0,1.624,1.9" transform="translate(3258.332 -14103.953)" fill="#fff"/>
    <path id="Tracciato_125" data-name="Tracciato 125" d="M294.623,166.368c.842-.065,1.569-.647,1.411-1.265-.023-.09-.147-.138-.259-.145a2.062,2.062,0,0,0-.736.115.942.942,0,0,1-1.162.2,2,2,0,0,1-.6-.927c-.261-.631-.74-3.263.539-3.53.427-.089.248-.573-.183-.492-.99.19-1.181.894-1.286,1.574a5.52,5.52,0,0,0,.248,3.289,2.13,2.13,0,0,0,2.029,1.177" transform="translate(3258.447 -14099.609)" fill="#fff"/>
    <path id="Tracciato_126" data-name="Tracciato 126" d="M294.952,147.582a2.252,2.252,0,0,0,2.065-1.791c.04-.226-.336-.309-.554-.235-.486.164-.758.569-1.175.712-2.141.736-2.005-1.692-1.813-2.317.395-1.286,1.3-1.967,3-2.3.193-.038.156-.214,0-.262-2.923-.91-4.389,2.768-4.109,4.238a2.527,2.527,0,0,0,2.586,1.957" transform="translate(3258.451 -14095.114)" fill="#fff"/>
    <path id="Tracciato_127" data-name="Tracciato 127" d="M297.916,127.882a2.61,2.61,0,0,0,2.268.01c.728-.365,1.524-1.341,1-1.971a.715.715,0,0,0-.9-.086c-.436.294-.367.764-.726,1.1a1.112,1.112,0,0,1-1.062.253c-1.339-.987-1.221-4.188,1.115-4.422a.131.131,0,1,0,0-.262,2.367,2.367,0,0,0-2.443,1.669,3.435,3.435,0,0,0,.431,3.536.562.562,0,0,0,.316.177" transform="translate(3258.614 -14090.69)" fill="#fff"/>
    <path id="Tracciato_128" data-name="Tracciato 128" d="M272.83,202.6c2.338-.128,4.655.25,6.987.128,1.512-.079,3.46-.083,4.473-1.006.186-.17.021-.536-.336-.426a19.54,19.54,0,0,1-6.331.71,11.626,11.626,0,0,0-4.851.436c-.1.038-.056.164.058.158" transform="translate(3257.748 -14109.263)" fill="#fff"/>
    <path id="Tracciato_129" data-name="Tracciato 129" d="M294.51,201.251c.231-.19.063-.464-.271-.483a2.144,2.144,0,0,1-1.569-.463,1.642,1.642,0,0,1-.462-1.49,2.85,2.85,0,0,1,1.785-2.039c.159-.078.022-.241-.147-.186-1.69.554-2.6,1.8-2.306,3.159.185.859,1.676,2.565,2.971,1.5" transform="translate(3258.421 -14108.155)" fill="#fff"/>
    <path id="Tracciato_130" data-name="Tracciato 130" d="M289.531,200.624a.363.363,0,0,0,.346-.1c.225-.388-.07-.671-.251-1.049a2.445,2.445,0,0,1-.219-1.676c.029-.122-.193-.168-.251-.051a3.4,3.4,0,0,0-.4,1.725c.031.436.123,1.023.773,1.156" transform="translate(3258.323 -14108.414)" fill="#fff"/>
    <path id="Tracciato_131" data-name="Tracciato 131" d="M248.257,199.222c-1,.382-1.192,1.354-2.139,1.8-1.8.844-4.418-.51-4.6-1.933-.012-.1-.185-.094-.2,0-.229,1.5,1.425,2.718,3.416,2.888a3.876,3.876,0,0,0,4.01-2.479c.064-.211-.226-.373-.485-.274" transform="translate(3256.621 -14108.729)" fill="#fff"/>
    <path id="Tracciato_132" data-name="Tracciato 132" d="M242.781,196.963a1.575,1.575,0,0,1,2.739-.253c.445.836.153,1.6.184,2.451.014.407.829.626,1.1.219a2.787,2.787,0,0,0-1.414-3.845c-1.416-.527-3.007.236-2.835,1.4.012.088.195.124.226.023" transform="translate(3256.666 -14107.869)" fill="#fff"/>
    <path id="Tracciato_133" data-name="Tracciato 133" d="M244.785,181.466a3.733,3.733,0,0,1-.933.663,1.914,1.914,0,0,1-2.057-.613,3.308,3.308,0,0,1-.291-2.821c.022-.1-.165-.141-.207-.042-.557,1.331-1.161,3.083.727,4.031a3.02,3.02,0,0,0,2.259.2c.719-.235,1.31-.734.976-1.321a.334.334,0,0,0-.473-.092" transform="translate(3256.601 -14103.918)" fill="#fff"/>
    <path id="Tracciato_134" data-name="Tracciato 134" d="M242.546,177.554c-.026.07.051.167.163.157.3-.025.925,1.045,1.035,1.225.3.494.369,1.07.706,1.539.175.244.772.209.841-.081.192-.807-.528-1.8-1.164-2.423-.249-.245-1.311-1.143-1.581-.418" transform="translate(3256.665 -14103.606)" fill="#fff"/>
    <path id="Tracciato_135" data-name="Tracciato 135" d="M245.367,212.394c-.077-.046-.172.023-.109.08,1.223,1.1.481,2.72-1.068,3.407-1.177.521-2.236.006-2.334-.975a3.047,3.047,0,0,1,.543-1.75c.079-.135-.092-.307-.294-.216-2.08.934-1.314,4.228,1.478,3.789,2.631-.413,4.018-3,1.784-4.334" transform="translate(3256.607 -14111.88)" fill="#fff"/>
    <path id="Tracciato_136" data-name="Tracciato 136" d="M293.2,218.533c.773-.021,1.082-1.068,1.077-1.49,0-.3-.579-.431-.786-.157-.092.123-.357.847-.424.859a3.152,3.152,0,0,1-.73-.511,1.344,1.344,0,0,1-.522-1.243c.159-.663.852-.592,1.452-.851.128-.055.1-.2-.04-.227-2.229-.512-2.616,1.507-1.691,2.54.306.34,1.032,1.1,1.664,1.081" transform="translate(3258.406 -14112.457)" fill="#fff"/>
    <path id="Tracciato_137" data-name="Tracciato 137" d="M270.758,239.619c2.2-.054,4.41.4,6.6.23,1.938-.152,3.743-.789,5.677-1,.6-.064.466-.835-.145-.789-1.952.148-3.686.814-5.606,1.049-2.138.263-4.338-.034-6.522.177-.275.026-.294.336,0,.328" transform="translate(3257.67 -14117.933)" fill="#fff"/>
    <path id="Tracciato_138" data-name="Tracciato 138" d="M247.1,234.039a2.09,2.09,0,0,1-1.444.023,3.465,3.465,0,0,1-1.229-.7,2.92,2.92,0,0,1-.42-2.414c.02-.2-.407-.238-.467-.047-.4,1.271-.754,2.63.74,3.575.838.53,3.332,1.346,3.449-.081.019-.226-.336-.434-.63-.355" transform="translate(3256.689 -14116.215)" fill="#fff"/>
    <path id="Tracciato_139" data-name="Tracciato 139" d="M249.291,231.365a2.615,2.615,0,0,1-.207,2.629c-.4.7-1.19,1.283-1.37,2.029-.035.146.157.28.349.2a4.282,4.282,0,0,0,2.1-2.442,2.574,2.574,0,0,0-.411-2.557c-.14-.177-.566-.06-.463.144" transform="translate(3256.851 -14116.3)" fill="#fff"/>
    <path id="Tracciato_140" data-name="Tracciato 140" d="M246.76,230.452a1.512,1.512,0,0,0-1.7-.169c-.146.1-.037.31.169.3,1.321-.073,1.078,1.543,2.256,1.489.165-.008.283-.092.292-.215.021-.277-.219-.479-.394-.707a3.414,3.414,0,0,0-.619-.7" transform="translate(3256.753 -14116.053)" fill="#fff"/>
    <path id="Tracciato_141" data-name="Tracciato 141" d="M294.482,235.572c-.064-.212-.457-.28-.654-.128-.324.251-.426.716-1.111.527-.544-.15-.82-.776-.954-1.133a5.441,5.441,0,0,1-.119-3.009c.056-.246-.423-.356-.517-.105-.527,1.4-.905,3.591.692,4.712,1.077.755,3.051.415,2.663-.864" transform="translate(3258.392 -14116.405)" fill="#fff"/>
    <path id="Tracciato_142" data-name="Tracciato 142" d="M292.294,231.829c.7,0,.971.9,1.143,1.292.191.431.234.879.7,1.207a.408.408,0,0,0,.518-.05c.478-.709-.223-1.762-.744-2.382-.342-.407-1.368-1-1.811-.322-.074.113.013.256.2.255" transform="translate(3258.442 -14116.331)" fill="#fff"/>
    <path id="Tracciato_143" data-name="Tracciato 143" d="M284.623,258.814c-1.751.233-3.458.818-5.206,1.124a28.611,28.611,0,0,0-4.651.86.09.09,0,0,0,.031.176,19.392,19.392,0,0,0,4.88-.336A16.057,16.057,0,0,0,284.9,259.3c.322-.182.143-.542-.277-.486" transform="translate(3257.819 -14122.822)" fill="#fff"/>
    <path id="Tracciato_144" data-name="Tracciato 144" d="M247.838,253.956c.162.486.507.915.624,1.415a2.622,2.622,0,0,1-.094,1.643c-.223-.144-.429-.329-.641-.453-.37-.216-.769-.41-1.1-.654a1.91,1.91,0,0,1-.678-2.439c.061-.157-.246-.313-.4-.17a1.716,1.716,0,0,0-.362,2.279,3.523,3.523,0,0,0,1.245,1.124c.507.311,1.031.76,1.57,1.02,1.019.489,1.362-.646,1.456-1.151a2.888,2.888,0,0,0-.976-2.889c-.281-.193-.733,0-.641.275" transform="translate(3256.75 -14121.51)" fill="#fff"/>
    <path id="Tracciato_145" data-name="Tracciato 145" d="M250.494,253.839a5.61,5.61,0,0,1,.484,1.668,7.464,7.464,0,0,0,.1,1.4c.034.125.268.13.351.034.809-.937.279-2.369-.482-3.242-.145-.167-.535-.063-.449.14" transform="translate(3256.95 -14121.599)" fill="#fff"/>
    <path id="Tracciato_146" data-name="Tracciato 146" d="M294.316,257.29a1.539,1.539,0,0,0,.683-2.379.3.3,0,0,0-.374-.035c-.459.342-.368.689-.566,1.127-.31.69-1.146.269-1.676-.1a1.872,1.872,0,0,1-.858-1.445c-.018-.863.677-1.1,1.7-1.25.112-.016.175-.13.11-.2-.67-.716-1.978-.136-2.409.469a2.117,2.117,0,0,0,.395,2.635,3.226,3.226,0,0,0,2.995,1.182" transform="translate(3258.39 -14121.376)" fill="#fff"/>
    <path id="Tracciato_147" data-name="Tracciato 147" d="M283.323,279.606c-4.443,1.193-8.226.855-12.833.435-4.8-.438-9.7.626-14.413-.037-.186-.026-.322.164-.136.238a12.172,12.172,0,0,0,4.823.62,96.121,96.121,0,0,1,10.948.189c4,.416,8.432.978,11.983-.793.426-.212.174-.8-.372-.651" transform="translate(3257.143 -14127.718)" fill="#fff"/>
    <path id="Tracciato_148" data-name="Tracciato 148" d="M294.744,280.215a.322.322,0,0,0-.081-.464.537.537,0,0,0-.436-.105c-.185.008-.323.137-.5.154a.959.959,0,0,1-1.031-.683c-.319-.861.327-1.581.426-2.388.008-.073-.082-.161-.18-.175-1.414-.194-1.492,2.163-1.294,2.776.292.909,2.215,2.145,3.094.885" transform="translate(3258.424 -14127.002)" fill="#fff"/>
    <path id="Tracciato_149" data-name="Tracciato 149" d="M249.075,298.5c-.3-.049-.529.174-.389.374a2.826,2.826,0,0,1,.64,2.651,15.481,15.481,0,0,1-.821,2.252c-.024.057.059.129.142.1,1.389-.42,1.577-1.912,1.746-2.881.149-.848.1-2.269-1.318-2.5" transform="translate(3256.879 -14132.175)" fill="#fff"/>
    <path id="Tracciato_150" data-name="Tracciato 150" d="M251.79,300.328a4.8,4.8,0,0,1,.171,2.056c-.1.458.8.667.964.2a2.082,2.082,0,0,0-.674-2.45c-.209-.157-.5.01-.461.2" transform="translate(3256.997 -14132.546)" fill="#fff"/>
    <path id="Tracciato_151" data-name="Tracciato 151" d="M292.567,302.373a1.583,1.583,0,0,0,1.814.027c.3-.261.079-.585-.353-.628-.6-.059-.959-.1-1.151-.582a3.379,3.379,0,0,1-.056-1.146c-.008-.766-.28-1.684.87-2.09.236-.084.154-.343-.07-.393-2.115-.47-1.836,2.3-1.831,3.1a1.846,1.846,0,0,0,.778,1.709" transform="translate(3258.431 -14131.942)" fill="#fff"/>
    <path id="Tracciato_152" data-name="Tracciato 152" d="M263.72,346.129c1.308.083,2.713-.222,4.027-.26a52.828,52.828,0,0,1,5.5.206c.578.043.575-.625,0-.668-3.481-.258-7.315.564-10.67.025-2.562-.412-4.423-.958-7.054-.4-.125.027-.1.165.03.167a30.466,30.466,0,0,1,6.035.547,14.458,14.458,0,0,0,2.131.383" transform="translate(3257.128 -14143.088)" fill="#fff"/>
    <path id="Tracciato_153" data-name="Tracciato 153" d="M278.425,326.09c1.914-.1,3.644.35,5.526.416a17.281,17.281,0,0,0,5.234-.716c.485-.138.3-.657-.215-.579a24.962,24.962,0,0,1-7.167.4,6.769,6.769,0,0,0-3.478.2c-.171.066-.1.285.1.274" transform="translate(3257.945 -14138.47)" fill="#fff"/>
    <path id="Tracciato_154" data-name="Tracciato 154" d="M281.977,355.319c2.117-.2,4.183-.594,6.315-.733,1.2-.078,2.426-.082,3.141-.878.2-.225-.135-.553-.485-.465-2.959.748-6.1.846-9.032,1.743-.213.065-.222.361.061.333" transform="translate(3258.072 -14145.075)" fill="#fff"/>
    <path id="Tracciato_155" data-name="Tracciato 155" d="M269.09,373.048c1.687.093,3.314.335,5.009.382a15.757,15.757,0,0,0,4.366-.138c.261-.07.245-.308,0-.382a15.921,15.921,0,0,0-4.366-.264c-1.685,0-3.332.19-5.009.233-.149,0-.147.161,0,.17" transform="translate(3257.614 -14149.646)" fill="#fff"/>
    <path id="Tracciato_156" data-name="Tracciato 156" d="M281.919,373.043c-.223.053-.2.256,0,.316a13.562,13.562,0,0,0,4.738.167,43.165,43.165,0,0,0,4.76-.464c.459-.083.376-.658-.115-.623-1.669.119-3.323.356-5,.391a20.693,20.693,0,0,0-4.379.212" transform="translate(3258.072 -14149.603)" fill="#fff"/>
    <path id="Tracciato_157" data-name="Tracciato 157" d="M252.647,405.227c4,.109,7.834-.621,11.826-.232a52.312,52.312,0,0,0,9.889-.242c.454-.044.489-.548,0-.544-3.761.037-7.34.275-11.093.14a67.466,67.466,0,0,0-10.7.467c-.326.042-.231.4.076.411" transform="translate(3257.018 -14157.091)" fill="#fff"/>
    <path id="Tracciato_158" data-name="Tracciato 158" d="M277.489,403.942c2.193.03,4.388-.018,6.58-.068a31.148,31.148,0,0,0,5.712-.341c.239-.051.271-.345,0-.381a31.428,31.428,0,0,0-5.712.066c-2.2.108-4.393.22-6.58.407-.267.023-.284.313,0,.317" transform="translate(3257.912 -14156.813)" fill="#fff"/>
    <path id="Tracciato_159" data-name="Tracciato 159" d="M298.133,391.442c-.4,0-.535.4-.2.548,2.432,1.113,7.391,1.579,9.81.2.848-.483,1.456-1.1,2.369-1.533a3.273,3.273,0,0,0,1.181-.664c.666-.749.285-1.628-.322-2.32-.073-.082-.287-.059-.271.054.2,1.554-2.109,3.2-3.933,3.925-2.641,1.056-5.9-.22-8.632-.211" transform="translate(3258.646 -14153.182)" fill="#fff"/>
    <path id="Tracciato_160" data-name="Tracciato 160" d="M296.385,391.331c1.647.106,3.39.192,5.043.173,1.079-.012,2.522-.112,3.055-.889.094-.137-.019-.318-.245-.315a12.245,12.245,0,0,0-1.742.306,14.023,14.023,0,0,1-2.5.075,10.3,10.3,0,0,0-3.747.27c-.27.1-.107.364.139.38" transform="translate(3258.587 -14153.813)" fill="#fff"/>
    <path id="Tracciato_161" data-name="Tracciato 161" d="M279.721,438.276a.3.3,0,1,0,0-.589c-4.331-.544-8.745-.281-13.112-.273-5.612.012-11.263-.842-16.838-.694-.168,0-.194.171-.039.211,4.992,1.281,10.877,1.244,16.109,1.312,4.47.058,9.469.491,13.881.034" transform="translate(3256.92 -14164.748)" fill="#fff"/>
    <path id="Tracciato_162" data-name="Tracciato 162" d="M304.966,421.849c2.464.159,4.46.352,6.139,1.847a.627.627,0,0,0,.7,0c.826-.707,2.907-1.866,2.9-2.9-.009-1.187-2.027-1.345-3-1.92-.282-.167-.774.046-.542.309.472.536,1.162.559,1.744.96,1.236.854-.456,1.995-1.449,2.757a7.56,7.56,0,0,0-6.6-1.369c-.228.076-.086.3.116.316" transform="translate(3258.896 -14160.533)" fill="#fff"/>
    <path id="Tracciato_163" data-name="Tracciato 163" d="M235.341,450.577c-1.716.106-3.726.583-4.605,1.764-1.036,1.392-.192,3.113.941,4.312.193.2.687.088.575-.179-.49-1.159-1.483-2.417-.7-3.63.75-1.162,2.427-1.27,3.91-1.611.465-.107.41-.689-.12-.656" transform="translate(3256.225 -14168.019)" fill="#fff"/>
    <path id="Tracciato_164" data-name="Tracciato 164" d="M258.98,450.418a.578.578,0,0,0,.541.051,6.393,6.393,0,0,1,4.418-.3c.407.079.584-.309.272-.475-1.9-1.017-3.576.049-5.376-.216-.857-.126-1.625-.465-2.557-.539-1.9-.152-3.809.047-5.341-.994-.3-.206-.7.1-.445.328,2.158,1.938,6.165.453,8.488,2.145" transform="translate(3256.948 -14167.382)" fill="#fff"/>
    <path id="Tracciato_165" data-name="Tracciato 165" d="M267.815,450.153c2.293.041,4.532.576,6.808.56,2.674-.02,5.166-.786,7.892-.788a24.6,24.6,0,0,0,5.786-.329,68.217,68.217,0,0,1,7.569-1.72c.585-.066.439-.767-.139-.756a21.93,21.93,0,0,0-5.868,1.112c-3.06.87-5.669.736-8.872.767-2.414.024-4.578.952-6.993.913-2.435-.04-3.945-.751-6.244-.092-.233.067-.213.329.061.333" transform="translate(3257.564 -14167.204)" fill="#fff"/>
    <path id="Tracciato_166" data-name="Tracciato 166" d="M311.385,456.716c.3-.164.252-.606-.213-.58a5.336,5.336,0,0,1-.562.038l-.434.074q-.563-.427-1.124-.854c-.039-.384,1.456-1.219,1.8-1.4,1.465-.785,3.834-1.4,4.8.163.074.119.3.071.35-.034.444-.984-.692-1.719-1.986-1.8a7.818,7.818,0,0,0-4.652,1.487c-.843.588-2.206,1.662-1.553,2.6.688.987,2.546.88,3.573.31" transform="translate(3259 -14168.427)" fill="#fff"/>
    <path id="Tracciato_167" data-name="Tracciato 167" d="M297.012,477.847c.016-.314-.659-.478-.843-.168-1.815,3.05-7.645,3.727-11.618,4.511a68.563,68.563,0,0,1-15.046,1.295,104.448,104.448,0,0,1-14.336-1.266,10.346,10.346,0,0,1-2.817-.627c-1-.532-1.083-1.549-1.7-2.193-.721-.75-.247-.7-1.438-1.1-.355-.119-.743.189-.437.417,1.212.905,1.032,2.255,2.246,3.139,1.368,1,3.579,1.137,5.358,1.376a106.334,106.334,0,0,0,17.717,1.157,81.154,81.154,0,0,0,16.725-2.617c2.688-.665,6.072-1.519,6.192-3.925" transform="translate(3256.885 -14174.367)" fill="#fff"/>
    <path id="Tracciato_168" data-name="Tracciato 168" d="M279.136,520.3c7.913-.627,15.261-7.526,16.811-12.921.064-.223-.395-.4-.532-.166a24.576,24.576,0,0,1-6.391,7.622c-2.974,2.255-6.609,3.332-10.03,5.074-.207.1-.163.414.143.39" transform="translate(3257.968 -14181.342)" fill="#fff"/>
    <path id="Tracciato_169" data-name="Tracciato 169" d="M269.971,521.4c.807-.172.451-.994-.34-.906-8.813.98-18.882-1.577-24.314-7.051-.1-.1-.324-.015-.239.1,4.266,5.864,16.188,9.712,24.893,7.854" transform="translate(3256.756 -14182.823)" fill="#fff"/>
    <path id="Tracciato_170" data-name="Tracciato 170" d="M301.192,489.324c.273-.124.206-.414-.086-.486a5.944,5.944,0,0,1-.641-.112q-.674.063-.339-.41l.235-.174a4.65,4.65,0,0,0,.865-1.1,2.318,2.318,0,0,0-.463-2.414c-.1-.122-.393-.043-.322.1a2.233,2.233,0,0,1-.257,2.388c-.367.492-1.352.843-1.385,1.447-.046.844,1.6,1.122,2.393.761" transform="translate(3258.683 -14176.029)" fill="#fff"/>
    <path id="Tracciato_171" data-name="Tracciato 171" d="M303.511,489.211c1.557.054,7.942.609,7.721-1.564-.027-.268-.442-.413-.72-.22a5.528,5.528,0,0,1-3.229.935q-1.942.12-3.863.36c-.392.048-.272.476.09.489" transform="translate(3258.84 -14176.683)" fill="#fff"/>
    <path id="Tracciato_172" data-name="Tracciato 172" d="M237.927,485.267c-2.09-.563-3.468,1.143-4.875,1.945-1.149.655-2.075.876-3.019-.362a2.566,2.566,0,0,1-.487-1.614c.091-1.509,1.885-1.695,3.412-2.249.2-.071.086-.277-.1-.284a4.99,4.99,0,0,0-3.927,1.271c-.862,1.036-.355,2.481.329,3.5a2.7,2.7,0,0,0,3.063.961c2.193-.532,3.016-2.44,5.486-2.509.525-.014.595-.528.12-.656" transform="translate(3256.161 -14175.589)" fill="#fff"/>
    <path id="Tracciato_173" data-name="Tracciato 173" d="M238.047,541.382c.16-.164.337-.323.5-.486a.785.785,0,0,0,.862-.2c.639-.74,4.241-.364,5.476-.565a13.054,13.054,0,0,0,4.452-1.313c1.272-.794,1.958-2.293.678-3.3-3.005-2.361-7.641.955-10.425,3.582a1.73,1.73,0,0,0-1.456,1.2.42.42,0,0,0,.027.254c-.221.243-.409.461-.555.641-.171.209.251.38.437.188m4.8-3.838c.785-.485,2.639-1.734,3.773-1.736q3.058,2.227.09,2.682-.55.136-1.1.259a12.488,12.488,0,0,1-3.275.387c-.539-.024-1.047-.118-1.568-.142.668-.511,1.36-1,2.085-1.45" transform="translate(3256.487 -14187.848)" fill="#fff"/>
    <path id="Tracciato_174" data-name="Tracciato 174" d="M293.5,532.344a3.656,3.656,0,0,0-1.541.3c-.246.093-.109.347.132.358,2.513.122,2.092,2.544,4.467,2.82,1.209.141,2.546-.086,3.781-.021a13.042,13.042,0,0,1,5.683,1.445c.7.378,1.673-.364,1.194-.881-1.678-1.812-4.051-5.525-7.217-6.259-3.063-.709-4.047,1.639-6.441,2.219-.022.005-.036.017-.057.023m3.568-.482c2.687-1.538,5.208,1.064,7.024,3.234a15.6,15.6,0,0,0-2.213-.349c-1.819-.16-4.021.336-5.5-.428a5.494,5.494,0,0,1-1.42-1.175c.835-.244,1.141-.727,2.109-1.282" transform="translate(3258.433 -14186.73)" fill="#fff"/>
    <path id="Tracciato_175" data-name="Tracciato 175" d="M247.362,550.054c-1.872.166-3.233,1.237-4.736,1.974a.417.417,0,0,0-.208.2,3.866,3.866,0,0,0-1.171.52c-.06.037,0,.109.075.095a6.374,6.374,0,0,1,3.391.224,5.377,5.377,0,0,0,1.648.315,3.631,3.631,0,0,0,1.292-.327,10.921,10.921,0,0,1,4.065-.958c.447-.013.632-.385.351-.625a6.419,6.419,0,0,0-4.707-1.416m-2.1,2.44c-.471-.081-.865-.167-1.221-.235a19.583,19.583,0,0,1,2.05-1.1,5.355,5.355,0,0,1,4.295.18,6.318,6.318,0,0,0-1.433.27c-1.375.423-1.948,1.185-3.691.886" transform="translate(3256.618 -14191.457)" fill="#fff"/>
    <path id="Tracciato_176" data-name="Tracciato 176" d="M300.915,550.617c-.748-1.8-2.995-2.922-5.46-3.228-1.591-.2-5.733.239-5.68,2.014.02.639,1.5,1.962,2.086,2.411a4.836,4.836,0,0,0,2.754.782c2.717.267,4.681.123,6.323-1.667.051-.021.087-.064.073-.109-.005-.015-.016-.028-.021-.044a.245.245,0,0,0-.076-.16m-4.7,1.143c-1.979.039-4.275-.375-4.937-1.963q-1.091-.732.715-1.2a5.855,5.855,0,0,1,2.047-.47,8.481,8.481,0,0,1,2.65.327,9.191,9.191,0,0,1,3.244,1.93c-1.368.472-1.959,1.339-3.719,1.374" transform="translate(3258.36 -14190.825)" fill="#fff"/>
    <path id="Tracciato_177" data-name="Tracciato 177" d="M256.857,570.431c.615.028,1.014-.531.7-.9-1.689-2.014-3.874-3.057-7.139-3.271a7.433,7.433,0,0,0-6.477,2.579c-.51.112-.322.653.17.688,1.383.1,2.687-.077,4.062-.063a14.581,14.581,0,0,1,3.266.472,31.173,31.173,0,0,0,5.417.5m-11.877-1.744a7.726,7.726,0,0,1,6-1.225,7.835,7.835,0,0,1,4.443,1.905,12.108,12.108,0,0,1-3.3-.134c-.674-.137-1.533-.52-2.263-.621a19.434,19.434,0,0,0-4.88.074" transform="translate(3256.705 -14195.277)" fill="#fff"/>
    <path id="Tracciato_178" data-name="Tracciato 178" d="M295.084,565.574c-2.092.08-4.536.4-5.7,1.764-.4.017-.524.5-.07.6a16.862,16.862,0,0,0,4.5.753c2.19-.128,3.9-.433,6.058.2.586.172.957-.374.741-.711a6.958,6.958,0,0,0-5.526-2.6m.365,2.4c-2.213.38-3.72-.106-5.764-.587,2.678-1.5,6.719-1.381,8.958.421a13.84,13.84,0,0,0-3.195.166" transform="translate(3258.333 -14195.12)" fill="#fff"/>
    <path id="Tracciato_179" data-name="Tracciato 179" d="M259.746,583.735c-.03,0-.062,0-.092,0-1.134-.583-2.509-.8-3.644-1.416a3.359,3.359,0,0,0-1.976-.65c-2.033.109-3.339,2.223-3.63,3.49-.313,1.357,1.88,2.128,3.522,1.914,1.02-.134,1.322-.693,1.983-1.2a9.709,9.709,0,0,1,3.97-1.416c.58-.121.4-.674-.133-.723m-4.912,1.791c-.749.544-2.181,1.233-3.258.466-.847-.6.1-1.767.57-2.32.242-.284.639-.839,1.067-.984a4.657,4.657,0,0,1,2.54.288c.757.326,1.454.686,2.208.963a10.152,10.152,0,0,0-1.86.744,9.326,9.326,0,0,0-1.267.842" transform="translate(3256.946 -14198.913)" fill="#fff"/>
    <path id="Tracciato_180" data-name="Tracciato 180" d="M288.022,583.32c-1.416.086-2.506,1.24-3.772,1.621a1.052,1.052,0,0,0-.908.116c-.022,0-.043,0-.065,0-.092-.007-.142.092-.076.135a.248.248,0,0,0,.027.015.211.211,0,0,0,.029.206,8.782,8.782,0,0,0,2.016,1.172,5.874,5.874,0,0,0,2.1.8c1.7.286,3.755-.276,4.027-1.7.258-1.345-1.65-2.469-3.375-2.365m-.235,3.195a4.816,4.816,0,0,1-2.074-.812c-.194-.116-.453-.289-.736-.447.061-.02.121-.039.182-.06,1.414-.5,3.533-1.928,4.733-.258.8,1.12-.865,1.723-2.106,1.578" transform="translate(3258.123 -14199.303)" fill="#fff"/>
    <path id="Tracciato_181" data-name="Tracciato 181" d="M236.893,544.01a18.2,18.2,0,0,0-6.806,4.073c-.079.072.05.173.141.1a47.32,47.32,0,0,1,6.8-3.939c.15-.078.063-.3-.136-.238" transform="translate(3256.218 -14190.037)" fill="#fff"/>
    <path id="Tracciato_182" data-name="Tracciato 182" d="M239.835,554.908a17.176,17.176,0,0,0-5.966,4.119c-.083.092.1.192.205.116,1.924-1.413,3.855-2.781,5.928-4.075.121-.076-.035-.217-.168-.16" transform="translate(3256.354 -14192.604)" fill="#fff"/>
    <path id="Tracciato_183" data-name="Tracciato 183" d="M242.72,571.585a6.819,6.819,0,0,0-2.373,1.738c-.08.083.107.191.193.11a28.2,28.2,0,0,1,2.32-1.715c.092-.069-.025-.178-.14-.133" transform="translate(3256.586 -14196.535)" fill="#fff"/>
    <path id="Tracciato_184" data-name="Tracciato 184" d="M283.673,568.053a70.475,70.475,0,0,1-9.988,1.181,67.845,67.845,0,0,1-10.039-1.028c-.216-.031-.383.2-.16.279,5.89,2.152,14.566,2.314,20.464.054.382-.147.1-.54-.278-.486" transform="translate(3257.413 -14195.704)" fill="#fff"/>
    <path id="Tracciato_185" data-name="Tracciato 185" d="M284.543,551.376c.494-.167.114-.654-.343-.6-4.1.491-8.012,1.3-12.211,1.4-3.7.08-7.3-.38-10.979-.507-.168-.006-.171.16-.037.2,6.819,2.048,16.883,1.776,23.57-.488" transform="translate(3257.323 -14191.633)" fill="#fff"/>
    <path id="Tracciato_186" data-name="Tracciato 186" d="M287.038,538.183c-5.149.844-10.017,1.873-15.334,2.11a118.067,118.067,0,0,1-14.242-.445c-.357-.027-.421.391-.084.455,9.4,1.807,21.1,1.518,30.086-1.377.6-.192.155-.84-.426-.744" transform="translate(3257.19 -14188.663)" fill="#fff"/>
    <path id="Tracciato_187" data-name="Tracciato 187" d="M255.1,527.239c8.976,3.387,23.686,4.03,33,1.04.331-.106.168-.533-.186-.506-5.293.393-10.339,1.319-15.725,1.216-5.843-.112-11.232-1.244-16.9-2.081-.257-.038-.451.232-.188.331" transform="translate(3257.111 -14186.008)" fill="#fff"/>
    <path id="Tracciato_188" data-name="Tracciato 188" d="M322.856,532.292c-.232-.163-.645.05-.458.261.572.642,1.155,1.291,1.652,1.967a7.175,7.175,0,0,0,1.4,1.833c.169.123.43.027.444-.136.069-.725-.544-1.444-1.031-2.047a9.614,9.614,0,0,0-2.008-1.876" transform="translate(3259.528 -14187.264)" fill="#fff"/>
    <path id="Tracciato_189" data-name="Tracciato 189" d="M264.927,587.492c-.289.131-.1.529.242.424a21.461,21.461,0,0,1,6.642-1.045c2.429.03,4.312.838,6.606,1.148.287.038.508-.2.291-.369-3.243-2.525-10.187-1.793-13.781-.158" transform="translate(3257.463 -14199.937)" fill="#fff"/>
    <path id="Tracciato_190" data-name="Tracciato 190" d="M260.423,615.182c2.48.76,5.166.368,7.791.34,3.065-.034,6.04.391,9.075.636.709.057.872-.824.169-.923a75.885,75.885,0,0,0-17-.254c-.156.015-.184.155-.036.2" transform="translate(3257.303 -14206.682)" fill="#fff"/>
    <path id="Tracciato_191" data-name="Tracciato 191" d="M275.977,618.388c-4.079-.8-7.876-1.464-11.99-.364-.159.043-.124.2.038.211,2.28.193,4.436-.261,6.684.221,1.754.377,3.434,1.113,5.267.685.486-.113.52-.651,0-.753" transform="translate(3257.431 -14207.347)" fill="#fff"/>
    <path id="Tracciato_192" data-name="Tracciato 192" d="M273.941,622.964c-1.929.268-3.048-.5-4.871-.656a4.037,4.037,0,0,0-2.863.738c-.156.116.039.274.223.213a5.758,5.758,0,0,1,2.99-.282c.75.151,1.433.465,2.168.649a3.706,3.706,0,0,0,2.673-.1c.374-.206.16-.625-.319-.559" transform="translate(3257.512 -14208.488)" fill="#fff"/>
    <path id="Tracciato_193" data-name="Tracciato 193" d="M272.008,630.174c.644-.2.42-.893-.293-.786a7.471,7.471,0,0,1-3.565-.206c-.214-.073-.436.111-.26.248a4.715,4.715,0,0,0,4.119.743" transform="translate(3257.572 -14210.109)" fill="#fff"/>
    <path id="Tracciato_194" data-name="Tracciato 194" d="M324.486,383.684c-3.021-2.725-4.509-3.2-9.006-1.956-1.855.514-5.052,2.027-8.312,3.177.351-3.047-2.6-5.241-6.643-4.925,1.12-1.743,6.719-3,8.455-2.975,1.869.026,3.471.7,5.343.329a8.638,8.638,0,0,0,6.041-5.31c.834-1.85,1.151-4.263-1.229-5.61-2.965-1.678-6.584.126-9.212,1.252a.192.192,0,0,0-.022,0,8.743,8.743,0,0,1-3.966.361,2.184,2.184,0,0,1-2.071-2.391,3,3,0,0,0-.673-2.252,4.879,4.879,0,0,0-4.447-1.266,5.571,5.571,0,0,0-.632-.314,3.887,3.887,0,0,0-.038-.815c.489-.129.973-.267,1.447-.419.716-.228.444-.873-.137-1.062.3-.958-.929-1.915-1.174-2.933-.075-.31-.135-.641-.188-.98a.442.442,0,0,0,.3-.375c.438-5.118,6.629-2.959,10.556-2.55a25.614,25.614,0,0,0,8.954-.991c3.878-.973,6.42-2.463,4.883-5.8-1.214-2.634-4.624-3.169-8.023-2.752-2.011.247-4,.888-6.07.864-2.886-.034-3.752-1.476-5.158-2.959A3.469,3.469,0,0,0,301,339.6a4.377,4.377,0,0,0-1.576-.461c1.178-1.484.609-3.433-1.532-4.555.118-.054.239-.1.357-.16a.259.259,0,0,0,.035-.025.387.387,0,0,0,.3-.307c.15-2.278-.762-4.38-1.5-6.506,1.126-.02,2.53.277,3.571.225a16.018,16.018,0,0,0,3.214-.566,16.1,16.1,0,0,1,4.527-.761c.857.02,1.657.076,2.483.047.752.348,1.428.752,2.292,1.233.448.249.558.57,1.177.646a3.435,3.435,0,0,0,1.849-.348c4.117-1.458,5.153-2.888,4.931-6.007-.165-2.3-2.688-2.77-5.508-3.432a23.778,23.778,0,0,0-7.609-.463c-2.287.2-8.312,1.97-10.171.542.782-1.322,1.212-2.53-1-3.726-.008,0-.018,0-.026-.008,1.511-1.24,1.148-3.166,1.474-5.338a.381.381,0,0,0-.268-.345l-.84-.423c.052-.031.106-.055.158-.086a.322.322,0,0,0,.026-.587c.251-1.234-1.028-2.041-1.24-3.414-.136-.871,0-1.663-.15-2.518,5.193-.9,9.957,2.064,15.163.436,2.834-.887,5.644-2.3,5.844-4.694.226-2.693-1.849-4.052-5.3-4.543-4.877-.693-10.033.453-15.015.113.147-.285.289-.577.418-.881.506-1.2,0-1.919-1.166-2.687,1.953-1.062,2.608-3.048.686-4.333.1-.038.209-.07.315-.11a.38.38,0,0,0,.274-.315.245.245,0,0,0,.017-.166c-.639-2.246-2.082-4.4-2.838-6.624a46.835,46.835,0,0,1,4.883-.792,31.086,31.086,0,0,1,5.659.409,6.2,6.2,0,0,0,3.832-.522.48.48,0,0,0,.213-.07c1.987-1.294,2.865-5.048.421-6.352-1.664-.887-4.73-.7-6.722-.929-2.582-.294-4.386-1.535-7.019-1.253a3.147,3.147,0,0,0-.276-.543c1.116-.673,1.374-1.575.238-2.781a1.827,1.827,0,0,0,1.454-1.883c-.083-1.24-1.474-2.784-1.708-4.117a13.947,13.947,0,0,1-.181-2.3c.97-1.607,3.664-1.967,5.02-3.407a4.383,4.383,0,0,0,1.374-3.9c-.509-2.158-3.758-3.907-6.462-2.826a3.212,3.212,0,0,0-.935-.982,1.711,1.711,0,0,0-.8-2.581c.013-.024.03-.044.041-.069.619-1.374-1.925-2.489-2.254-3.686-.4-1.464.429-3.14.607-4.631.006-.008.019-.012.024-.022a1.018,1.018,0,0,1,.77-.6c.259-.073.53-.131.793-.2s.57-.147.879-.206a7.129,7.129,0,0,0,4.549.338,4.69,4.69,0,0,0,3.384-4.916c-.314-1.724-2.727-3.861-4.911-4.469-2.569-.715-4.228.907-5.587,2.284a1.928,1.928,0,0,0-.712-.6c.3-.62.058-1.233-.713-1.634a1.914,1.914,0,0,0,.379-.758c.19-.747-.3-1.273-.575-1.966-.09-.229-.168-.457-.235-.686a6.643,6.643,0,0,1,1.753-1.944c1.4-.974,2.556-.578,4.268-.828a4.353,4.353,0,0,0,1.7-.565,1.591,1.591,0,0,0,.572-.351h0c.118-.074.241-.152.378-.236,2.334-1.439,3.04-2.983,2.12-5.2-.674-1.63-1.507-3.371-4.041-3.506a9.5,9.5,0,0,0-6.543,2.158c-.021-.018-.036-.035-.058-.053.285-.514.21-1.052-.548-1.415a1.681,1.681,0,0,0,1.292-1.137c.218-.707-.3-1.593-.7-2.343a.359.359,0,0,0,.047-.062c.843-1.918,2.712-3.054,4.77-4.287,1.335-.8,3.5-1.439,4.633-2.442,1.453-1.289,2.252-4.653,1.111-6.162-1.1-1.459-3.945-2.024-6.055-1.658-2.432.422-3.665,2.168-5.367,3.4a3.206,3.206,0,0,0-.325-.368,2.19,2.19,0,0,0-.9-2.113,2.116,2.116,0,0,0,.424-.566c.626-1.267-.041-2.974-.63-4.577a5.3,5.3,0,0,1,.738-.9,16.191,16.191,0,0,1,1.708-1.319,10.273,10.273,0,0,1,1.752-1.044,6.874,6.874,0,0,1,2.884-.425,3.054,3.054,0,0,0,2.915-.113,4.427,4.427,0,0,0,2.021-4.716,4.216,4.216,0,0,0-2.63-3.575c-2.858-.91-6.529.869-9.479.6a9.537,9.537,0,0,0-.158-1.367,12.964,12.964,0,0,1-.02-1.538,4.664,4.664,0,0,1,.86-1.125,19.09,19.09,0,0,1,1.819-1.322,5.586,5.586,0,0,1,2.27-.99,5.972,5.972,0,0,1,.714-.048c1.63.469,3.3.718,4.685-.213a4.324,4.324,0,0,0,1.882-4.666,4.035,4.035,0,0,0-4.088-3.1,12.536,12.536,0,0,0-3.707.94,18.893,18.893,0,0,0-4.338,1.95c-.089-.142-.195-.284-.3-.427a3.019,3.019,0,0,0,.442-.357c1.342-1.357.865-3.391.453-5.248a9.319,9.319,0,0,1,1.644-1.439,6.4,6.4,0,0,1,4.04-.975c1.451.543,2.846,1.018,4.469.015,2-1.236,1.693-3.346,1.287-5.041-.45-1.883-1.714-2.849-4.349-2.91-3.054-.071-4.941.832-7.392,1.849a4.793,4.793,0,0,0-.795-2.541,20.145,20.145,0,0,1,2.645-2.335,10.976,10.976,0,0,1,2.139-1.5,7.669,7.669,0,0,1,2.887-.472,4.661,4.661,0,0,0,5.395-.273c2.116-1.814,1.772-4.634.937-6.772-.806-2.062-3.546-2.21-6.216-2.116-3.286.117-5.259,1.931-7.271,3.64a8.509,8.509,0,0,0-.226-1.649.36.36,0,0,0-.035-.072c.694-.952.473-2.024.261-3.133q-.095-.5-.183-.984c.02-.009.039-.009.059-.02a22.438,22.438,0,0,1,3.193-1.665,3.545,3.545,0,0,1,2.8-.144,11.856,11.856,0,0,0,4.7.415c3.688-.683,4.36-3.285,3.977-5.732a4.894,4.894,0,0,0-4.922-4.293,7.748,7.748,0,0,0-3.779,1.253c-2.051,1.036-4.392,1.605-6.49,2.531l0,0a7.009,7.009,0,0,0,.4-2.43c.146-.089.292-.18.435-.277a.274.274,0,0,0,.131-.371c.72-1.092.152-2.317-.32-3.523,1.215-.762,2.2-1.865,3.671-2.3,1.443-.424,2.872.147,4.284.072a5.762,5.762,0,0,0,1.618.351,4.8,4.8,0,0,0,5.325-4.454,5.057,5.057,0,0,0-.848-3.456c-.937-1.234-2.148-1.221-3.815-1.59-1.737-.385-2.886-1.02-4.793-.739A9.748,9.748,0,0,0,289.139,107a6.913,6.913,0,0,0-.067-1c.726-1.109.849-2.519,1.407-3.618a.269.269,0,0,0,0-.25c1.058-1,2.684-1.376,4.341-1.794a12.052,12.052,0,0,1,2.779-.5,24.048,24.048,0,0,1,2.843.342,6.2,6.2,0,0,0,1.767.355,4.544,4.544,0,0,0,4.958-4.535c-.171-2.4-2.408-3.892-5.538-3.907a44.191,44.191,0,0,0-5.915-.049c-1.77.24-2.842,1.17-4.115,1.948a2.655,2.655,0,0,0-.306-.732,2.22,2.22,0,0,0,.413-.225c1.064-.737,1.222-2.068,1.881-2.974,1.266-1.74,5.177-2.153,7.564-1.283a4,4,0,0,0,2.333,1.283c4.338.807,6.688-2.808,7.366-5.3.286-1.052.554-2.058-.323-3.016-.8-.871-2.925-2.643-4.243-2.779-1.286-.132-1.991.445-3.141.837-3.174,1.082-10,1.553-12.73-.462a1.042,1.042,0,0,0-.663-.551c.469-.2.944-.4,1.426-.585a.865.865,0,0,0,.754.233c1.374-.179,2.787.656,4.175.764a15.537,15.537,0,0,0,3.108-.174c2.047-.257,3.189-.613,4.249-1.931,1.694-2.106,4.818-6.158-.057-7.208a12.468,12.468,0,0,0,1.488-2.18c.4-.6,1.034-1.308.9-2.02-.205-1.056-1.876-1.928-3.1-2.3-1.079-.326-2.332-.233-3.31-.722a7.1,7.1,0,0,0-.877-.5,11.008,11.008,0,0,1-.278-1.963c0-.514.145-1.025.183-1.533a4.294,4.294,0,0,0,2.337.106c2.219-.595,3.35-2.794,2.789-4.345a.52.52,0,0,0-.583-.245c-3.354.695-3.168-2.391-5.649-2.7a.693.693,0,0,0-.147.006c-.649-1.445.632-3.219.094-4.659a9.493,9.493,0,0,0,2.418.044c.024,0,.049,0,.074-.006.04,0,.078-.005.118-.01a.9.9,0,0,0,.108-.031c.027-.007.05-.005.076-.014s.053-.021.08-.031a.3.3,0,0,0,.034-.013c2.316-.838,2.5-2.97,2.514-4.68,0-.283-.355-.443-.7-.394a2.524,2.524,0,0,1-2.641-1.025.484.484,0,0,0-.115-.132c.046-.031.083-.063.134-.095a.443.443,0,0,0,.115-.659,2.991,2.991,0,0,0-2.9-.777,19.534,19.534,0,0,0-.236-2.44,15.74,15.74,0,0,1-.738-2.839,9.008,9.008,0,0,0,1.216.23c2.883.288,6-1.052,4.706-3.428a.522.522,0,0,0-.118-.136.471.471,0,0,0-.231-.13h0a.813.813,0,0,0-.205-.029,7.9,7.9,0,0,1-2.263-.286,1.584,1.584,0,0,0-.247-2.518c-1.535-1.15-3.853-.361-5.706-.2a.946.946,0,0,0-.118-.011l-.118.006a7.416,7.416,0,0,1,.482-2.657,9.637,9.637,0,0,1,1.52-2.175c.242.157.484.313.724.462,1.708,1.049,5.159,3.388,7.345,1.508a.615.615,0,0,0,.175-.234c.007-.014.022-.021.028-.035.758-1.545-.659-2.57-2.347-3.317-1.243-.55-4.521-1.6-4.009-3.017.21-.582,1.637-1.32,2.237-1.684a.435.435,0,0,0,.14-.683c3.344-2.116,5.817-1.8,9.878-1.644,1.589.06,2.812.115,4.016-.739,1.636-1.16,2.217-3.919,1.1-5.391-1.427-1.884-6.153-1.85-8.479-2.918-3.743-1.72-6.571-4.057-11.125-4.571-4.913-.555-9.841.635-14.619,1.279-6.811.918-13.093.411-19.91.173-4.276-.15-9.015.19-12.672,1.99-2.427,1.195-3.656,2.982-6.383,3.864-2.11.682-4.257.613-6.258,1.435a.648.648,0,0,0-.312.124c-2.53,1.944-2.232,5.172,1.515,6.179,4.571,1.229,11.849-3.363,15.162.159.008.008.02.011.028.019a.421.421,0,0,0,.049.041,5.276,5.276,0,0,1-.038,2.307,5.949,5.949,0,0,1-2.351,2.4c-1.3.855-2.819,1.663-4.191,2.461-.224.131-.106.46.176.492-.418-.047.467,1.275.494,1.305a2.952,2.952,0,0,0,1.881,1.1,5.748,5.748,0,0,0,2.791-.5,13.512,13.512,0,0,1,6.412-.979.636.636,0,0,0,.1-.008,2.442,2.442,0,0,1,.224.951,2.813,2.813,0,0,1-.256.957c-.111-.019-.214-.029-.33-.054a8.342,8.342,0,0,0-3.209-.436,3.469,3.469,0,0,0-3.038,2.969c0,.013,0,.024,0,.037l-.006.017c-.58.612-1.955.429-2.771.8a2.1,2.1,0,0,0-1.173,1.844c-.117.744-.37,2.24.2,2.927.524.632,1.985.649,2.843.583a.489.489,0,0,0,.481-.344c.059-.016.116-.027.175-.044a10.089,10.089,0,0,0,1.671-.468c-.369,1.409.446,2.913.344,4.367a3.28,3.28,0,0,0-1.244.05c-.65.193-1.114.623-1.037,1.157a4.763,4.763,0,0,0,.5,1.1,4.606,4.606,0,0,1,.339,1.194c-1.159.111-2.323.029-3.469.17s-1.3.646-1.4,1.424a2.505,2.505,0,0,0,1.239,2.748c1.344.722,3.032.477,4.534.206A5.977,5.977,0,0,1,250.459,49,11.276,11.276,0,0,0,250,50.812a3.624,3.624,0,0,0-.747,1.064.381.381,0,0,0,.088.45,18.907,18.907,0,0,0-1.987-.131,7.847,7.847,0,0,0-2.364.039,1.551,1.551,0,0,0-1.05,1.634c.1.641.517,1.049.263,1.759-.137.384-.347.685-.064,1.056.6.78,2.417,1.2,3.541,1.145a.732.732,0,0,0,.314-.085,3.913,3.913,0,0,0,.915-.372c.925-.048,1.849-.134,2.771-.229a4.628,4.628,0,0,1-1.377,3.044c-1.108.936-2.595.733-3.9,1.1a.971.971,0,0,0-.565.049c-3.325,1.323-5.4,5.59-2.124,7.615a4.792,4.792,0,0,0-3.2.78c-1.494,1.3-1.007,4.158.019,5.522a6.979,6.979,0,0,0,6.074,2.93,9.176,9.176,0,0,0,1.875-.157.937.937,0,0,0,.37.011c2.692-.458,5.28-1.08,7.881-.3a1.9,1.9,0,0,1-1.6.962,7.428,7.428,0,0,0-2.815.412.7.7,0,0,0-.082.062c-.018.012-.038.016-.055.03-1.6,1.357-6.489-.026-8.594-.389a7.3,7.3,0,0,0-4.013.05,4.905,4.905,0,0,0-2.793,5.946,4.457,4.457,0,0,0,5.7,2.874c3.81-.239,7.209-.292,10.108,1.946,1.433,1.106,2.809,3.167,4.745,3.817l.048.015a.315.315,0,0,0-.048.076,1.427,1.427,0,0,0-.085.626c-2.116-.774-3.772-2.058-6.127-2.549a15.7,15.7,0,0,0-5.418-.152c-1.6.238-3.831.776-4.866,1.785-1.079,1.052-.78,2.434-.714,3.686.145,2.726,1.66,4.21,5.544,4.568a10.87,10.87,0,0,0,5.187-.651c1.6-.07,3.432,1.348,4.506,1.928a6.966,6.966,0,0,0,2.407.887,3.708,3.708,0,0,0-.356,2.645,10.6,10.6,0,0,0-.377,1.482,1.291,1.291,0,0,0-.573.485,11.9,11.9,0,0,0-6.006-3.128c-3.547-.717-8.8-.688-10.463,2.278-1.349,2.411,1.148,5.959,3.822,7.365,2.055,1.08,4.272.49,6.562.943,2.512.5,3.5,2.086,5.881,2.376-.337.679-.794,1.214-.642,2a2.041,2.041,0,0,0,.526,1,3.378,3.378,0,0,0-.252,1.133c-2.1-.53-3.321-1.971-5.385-2.571a11.734,11.734,0,0,0-5.449.163c-1.555.3-3.611.526-4.559,1.613s-.487,2.655.059,3.773c1.095,2.244,4.248,5.255,7.908,4.04a6.734,6.734,0,0,0,1.406-.663,8.986,8.986,0,0,1,1.406.352,14.825,14.825,0,0,1,1.985,1.069,9.388,9.388,0,0,1,2.852,2.048,5.533,5.533,0,0,1-.142.559c-.187.576-.638,1.069-.578,1.682a1.7,1.7,0,0,0,.1.391,6.256,6.256,0,0,0-1.344-.578c-1.444-.381-2.883.016-4.349-.331-2.205-.522-3.376-1.426-5.842-1.01-4.579.774-5.186,4.27-4.629,7.235.591,3.158,4.135,4.146,8.3,3.754a3.3,3.3,0,0,0,2.822-1.564c.982.725,2.085,1.4,3.082,2.1a17.441,17.441,0,0,0,3.745,2.148.5.5,0,0,0,.05.011,8.289,8.289,0,0,1-.422,1.573,3.584,3.584,0,0,0-.316,2.48c-2.733-.448-3.987-2.168-6.522-2.869a14.193,14.193,0,0,0-5.392-.443,5.3,5.3,0,0,0-4.287,5.28,5.1,5.1,0,0,0,4.726,4.967,7.771,7.771,0,0,0,3.872-.51,20.248,20.248,0,0,1,3.829.576,11.45,11.45,0,0,1,3.435,1.819,6.171,6.171,0,0,0-.475,1.618,3.223,3.223,0,0,0,.241,1.772c-4.489-2.577-12.919-4.008-15.345.847-.971,1.942-.15,4.037,2.156,5.253,2.438,1.285,4.527.483,6.8,0,.5.175,1.021.306,1.5.52a14.608,14.608,0,0,1,2.141,1.3c1.244.832,2.451,1.717,3.8,2.453a13.458,13.458,0,0,0,.191,3.733,3.285,3.285,0,0,0,.137.452c-.005,0-.011,0-.017.008l-.036.027A15.477,15.477,0,0,0,247,173.836c-3.29.122-4.769.626-5.322,3.129-.461,2.082-.094,5.265,2.183,6.792,2.478,1.66,5.444.653,8.167-.088a4.26,4.26,0,0,1,1.894.553,17.153,17.153,0,0,1,1.449,1.183,9.647,9.647,0,0,1,1.369,1.375c.267.346.4.728.671,1.048a8.575,8.575,0,0,0-.632,2.386,2.4,2.4,0,0,0,1.505,2.256,2.532,2.532,0,0,0-1.279,1.99c-2.562-2.616-9.07-4.46-11.85-1.532-1.4,1.474-1.251,4.094-.252,5.647a3.963,3.963,0,0,0,2.362,1.7,6.7,6.7,0,0,0,3.285-.2c3.615.923,5.307,4.229,7.475,6.35-.308.8-1.206,1.791-1.014,2.57a1.944,1.944,0,0,0,.383.754c-.974.893-1.21,1.59-.911,2.129-3.375-2.456-8.818-4.569-10.737.027a4.5,4.5,0,0,0,1.406,5.408,5.551,5.551,0,0,0,2.38,1.047c2.549.778,5.647,2.443,6.745,4.545a3.689,3.689,0,0,0-.778,2.234c.118.751.754,1.181,1.557,1.442a1.69,1.69,0,0,0-.361,1.35.424.424,0,0,0-.061.007,3.147,3.147,0,0,0-1.879,1.239c-.979-1.335-2.555-3.206-4.617-2.921-2.12.293-4.67,1.877-5.064,3.477a5.455,5.455,0,0,0,2.623,5.142,4.917,4.917,0,0,0,3.149.189,10.4,10.4,0,0,0,1.375-.345,9.752,9.752,0,0,1,2.147,2.265,6.513,6.513,0,0,1,.982,1.324,6.652,6.652,0,0,0,.5,1.25,4.86,4.86,0,0,1-.652,1.23v0c-2.118,1.981-1.161,2.821.741,3.21a1.762,1.762,0,0,0-.115,2.958,3.485,3.485,0,0,0-.95,1.456c-2.431-2.072-7.287-1.824-7.244,1.523.023,1.687.1,3.861,1.63,5.222a9.462,9.462,0,0,0,6.371,1.872,9.813,9.813,0,0,1-.217,3.753c-.365,1.237-1.65,2.53-.791,3.786a3.412,3.412,0,0,0,1.969,1.21,2.363,2.363,0,0,0-.378.963,17.288,17.288,0,0,0-5.082,3.031,7.724,7.724,0,0,1-5.263,1.779c-1.093-.021-2.038-.574-3.212-.512-2.665.14-4.386,1.724-4.744,3.571-.451,2.324,1.174,4.534,4.109,5.454,4.6,1.443,7.939-.944,12.083-1.87a.6.6,0,0,0,.325-.18,4.7,4.7,0,0,1,2.2.544,8.264,8.264,0,0,1-.682,3.984c-.206.44-1.887,2.168-1.85,2.982.037.836.468.986,1.4,1.18h0c-1.525.8-1.1,2.194.116,3.079-2.634.976-3.091,2.251-2.771,3.669a25.027,25.027,0,0,1-9.544,1.16c-1.793-.067-3.463-.272-5.028.512-2.048,1.026-3.332,3.1-2.257,4.762a7.718,7.718,0,0,0,6.608,3.761c1.677-.083,3.258-.93,4.848-1.244,2.341-.46,4.685-.109,7.062-.264a9.175,9.175,0,0,1-1.021,2.213,15.226,15.226,0,0,0-1.687,2.753,3.146,3.146,0,0,0,.767,3.523c-1.729,1.27-1.323,3.048.172,4.279-1.341.456-2.469,1.11-2.753,2.216a.273.273,0,0,0-.047.211c-.005.037-.021.07-.024.108a3.053,3.053,0,0,0,.367,1.549c-3.434.082-6.037.191-9.439-.773a11.423,11.423,0,0,0-4.9-.677,5.853,5.853,0,0,0-5.416,5.473c-.133,2.8.71,3.185,4.106,3.788,2.642.469,4.807-.2,7.553-.231,3.191-.04,6.415.151,9.606.235a7.266,7.266,0,0,1-1.4,4.71c-.5.817-1.172,1.545-.966,2.512a2.511,2.511,0,0,0,1.514,1.814,6.139,6.139,0,0,0-.949.871,3.839,3.839,0,0,0-3.321,1.763c-1,1.387-.327,3.072-1.094,4.457-2.565.482-5.6-.229-8.176-.156a25.282,25.282,0,0,0-5.575.519c-2.81.764-4.129,2.606-4.277,4.748a5.072,5.072,0,0,0,3.282,5.469c2.267.753,4.628.156,6.75-.693,4.324.092,8.355,1.107,12.737.791-.315,1.257-.829,2.332-1.226,3.461a.143.143,0,0,0-.036.109,8.511,8.511,0,0,0-.515,2.635.533.533,0,0,0,.362.465c.219.093.411.186.594.268a2.9,2.9,0,0,0-.146,1.907c-1.56-.673-4.033.053-5.226.865-1.83,1.244-1.971,3.26-1.556,4.984a7.328,7.328,0,0,1-4.138-.425c-1.255-.45-2.233-1.25-3.609-1.551-2.847-.621-5.037.923-6.529,2.563-2.73,3-.943,10,5.278,9.2a.7.7,0,0,0,.351-.043,13.127,13.127,0,0,1,5.748-1.344c-2.241,1.692-3.963,4.239-3.5,6.577a6.148,6.148,0,0,0,1.782,3.042c-3.132.346-5.683-1.146-8.45-2.59-2.418-1.262-5.755-2.035-7.75.095-1.615,1.724-1.158,3.625-3.285,5.287a26.434,26.434,0,0,0-4.822,4.215c-2.829,3.611-2.332,6.918-2.592,10.905-.141,2.148-1.615,4.106-1.224,6.278a7.732,7.732,0,0,0,2.531,4.031c3.383,3.177,8.923,4.509,12.228,7.693,4.01,3.863,3.767,9.39,6.391,13.771,1.692,2.824,4.049,6.525,8.425,7.363,1.076,2.729,3.37,4.388,5.367,6.75,1.081,1.28,1.2,2.782,2.159,4.089a12.156,12.156,0,0,0,3.147,2.7c3.1,2.057,5.594,3.593,7.706,6.319a8.99,8.99,0,0,0,3.867,3.236c-2.736.34-4.764,2.464-2.082,4.167,1.483.942,3.317.839,4.237,2.418a18.148,18.148,0,0,0,1.263,2.561,21.81,21.81,0,0,1,2.679,4.825c.634,1.35,2.4,2.628,2.475,4.093.01.209.187.324.393.357-.21,1,1.364,1.49,2.561.892.948-.474.689-1.753,1.148-2.463.98-1.519,2.391-2.615,3.126-4.253,1.221-2.724,1.977-5.168,5.192-7.019,1.489-.858,3.949-1.509,5.059-2.665,1.624-1.692.348-3.413-1.93-3.948a8.608,8.608,0,0,0,.93-1.169c1.9-2.859,5.064-4.3,8.2-6.348,3.7-2.423,7.519-6.217,7.643-10.039a.6.6,0,0,0,.36-.067c7.974-4.441,15.07-9.33,16.556-16.93a14.458,14.458,0,0,1,4.745-8.634c1.66-1.482,3.783-2.69,5.271-4.279,3.348-3.571,1.762-8.238,2.744-12.286,1.931-7.966-.756-15.688-7.757-22.005M295.209,253.691c-.039-1.781.9-4.282.082-6.125,3.085-.365,5.327,1.324,4.984,3.67-.237,1.623-1.423,2.708-3.285,3.51l-.158.071a2.4,2.4,0,0,0,.438-.962c.02-.126-.22-.227-.357-.151a4.418,4.418,0,0,0-1.21,1.119,7.068,7.068,0,0,0-.508.627c.014-.592.027-1.181.014-1.759m-3.369-25.852c1.071-.519,1.746-1.471,2.894-1.834,2.081-.659,4.735,1.676,5.478,2.884a3.176,3.176,0,0,1-1.778,4.481c-1.807.716-3.419-.041-4.931-.777-.5-.245-1.208.251-.849.628a3.832,3.832,0,0,0,.671.539c-.256.043-.516.1-.787.154a5.6,5.6,0,0,0-.747.211c-.036-.816-.18-1.607-.273-2.444-.127-1.13.72-2.693.322-3.841m-4.074-62.825c3.09-.913,9.181-4.5,10.5-.4.349,1.086.224,3.167-1.05,3.955l-2.976.565q-.682-.25-1.385-.465a17.543,17.543,0,0,0-2.309-.537c-.6-.1-.826.524-.253.676.4.105.812.237,1.236.375a7.635,7.635,0,0,0-1.552.71,20.707,20.707,0,0,0-2.366,1.549c.078-.505.169-1.015.286-1.542.389-1.755.656-3.316-.126-4.884m-.089-14.456a10.043,10.043,0,0,0,2.847-.969c2.369-.958,6.682-1.084,7.65,1.279.793,1.939.719,5.985-3.76,4.6-1.229-.38-2.044-.945-3.451-.866-.678.039-.682.744,0,.781a5.922,5.922,0,0,1,1.232.209,6.6,6.6,0,0,0-2.205.682,7.4,7.4,0,0,0-2.045,1.424,7.017,7.017,0,0,1-.163-1.517c.071-2.167,1.56-3.677-.16-5.514.02-.036.038-.072.055-.108m10.952-96.665a4.944,4.944,0,0,0,2.453,1.133c1.5.222,2.879-.208,1.1,1.853a2.885,2.885,0,0,1-1.917,1.072,3.323,3.323,0,0,1-.829-.537,3.8,3.8,0,0,1-.935-1.681,7.719,7.719,0,0,1-.223-2.171,4.383,4.383,0,0,0,.348.332M255.411,255.509a2.3,2.3,0,0,0-1.258-.6c-.132-.008-.254.109-.207.2.162.315.558.537.847.788.063.055.122.118.181.18a11.614,11.614,0,0,1-3.368-.543c-2.17-.825-2.522-2.28-2.74-3.9-.051-.388-.11-.78-.135-1.169-.079-1.2-.195-1.324,1.309-2.068a3.305,3.305,0,0,1,3.536-.06,12.562,12.562,0,0,1,1.156.649c-.33,1.786.4,3.875.59,5.515.039.346.086.7.132,1.049l-.046-.036m-14.58,70.183-.069,0a21.507,21.507,0,0,1,2.826-1.323c1.4-.511,2.943-.664,4.319-1.154.291-.1.117-.394-.151-.411a11.794,11.794,0,0,0-7.576,2.929c-2.717.206-6.579.663-7.969-.958-1.851-2.161.468-5.19,3.234-5.972a8.913,8.913,0,0,1,1.154-.248,4.043,4.043,0,0,0-2.638,4.237.432.432,0,0,0,.672.206,6.5,6.5,0,0,1,4.594-1.467,34.244,34.244,0,0,0,4.154.009c.273-.029.252-.351,0-.393a23.03,23.03,0,0,0-5.516-.206,6.535,6.535,0,0,0-3.022,1.142,3.443,3.443,0,0,1,.73-2.019c.72-.809,1.917-1.054,2.965-1.506,1.116.167,2.147.589,3.573.958,2.658.689,5.666.207,8.424-.068a8.277,8.277,0,0,1,1.058,2.421,16.4,16.4,0,0,1,.137,1.7,2.677,2.677,0,0,0-.535.087c-.756.2-1.507,1-2.318.992-.115,0-.177.131-.062.168a2.1,2.1,0,0,0,1.559-.05c.306-.131.56-.316.878-.432a1.374,1.374,0,0,1,.5-.083c.011.543.02,1.085.034,1.626-3.606-.092-7.361-.405-10.955-.192m64.945,59.323a.408.408,0,0,0,.084.329c-3.053.965-6.008,1.447-7.816.326a4.515,4.515,0,0,0,1.293-4.694.879.879,0,0,0,.5.062q5.869-.937,5.942,3.977m-3.453-21.254c.749.886.213,1.687.23,2.6a1.773,1.773,0,0,0,.631,1.54c1.654,1.44,4.922,1.273,7.053.665a.725.725,0,0,0,.156-.074c2.867-1.179,8.994-4.437,9.058,2.328.01,1.109-1.211,2.615-2.046,3.482-2.855,2.967-5.91,1.408-9.772,1.787-2.7.265-7.761,1.787-8.521,3.946a29.424,29.424,0,0,1-1.348-5.06c-.25-3.522,2.29-6.331,2.625-9.69a3.027,3.027,0,0,0-1.02-2.72,3.684,3.684,0,0,1,2.954,1.192m-.718-23.252c1.322.8,1.493,2.481,2.823,3.347a7.533,7.533,0,0,0,3.163,1,22.128,22.128,0,0,0,5.964-.547c3.031-.459,4.355-.712,6.416,1.065q3.776,2.067-1.136,4.83-1.053.3-2.122.572a22.817,22.817,0,0,1-10.177.365,14.137,14.137,0,0,0-5.421-.4,5.567,5.567,0,0,0-3.3,1.9,23.263,23.263,0,0,1,1.282-7.759c.514-1.341,2.541-3.123,2.509-4.369m-.963-20.4c4.612-.125,8.494-1.63,13.277-.792,2.621.459,5.522.931,5.832,3.2.191,1.4-1.9,4.482-4.256,4.652-1.979.143-4.537-1.855-6.542-2.378-.783-.2-1.146.681-.441.926a15.5,15.5,0,0,0-4.6.61,16.909,16.909,0,0,1-5.662.38c.415-.18.825-.371,1.251-.533,1.058-.4,2.191-.675,3.247-1.07.419-.157.116-.605-.308-.538a15.826,15.826,0,0,0-3.378,1.055,10.258,10.258,0,0,0-2.124,1.037c-.057,0-.111,0-.157,0a8.62,8.62,0,0,1-.107-5.833c.011-.031.028-.062.039-.093a3.385,3.385,0,0,0,1.253.4,5.82,5.82,0,0,0,1.725-.073c.95-.154,1.9-.235,2.847-.386.243-.039.285-.307.069-.393-1.865-.743-3.968,1.04-5.618-.135.15-.283.315-.56.483-.832.717.738,1.721.838,3.168.8m-6.956-4.992c-4.242,1.128-9.683,1.15-14.14,1.342-4.072.175-8.1.125-12.171-.066-2.026-.095-4.048-.2-6.068-.352-1.154-.086-2.321-.154-3.462-.313a7.307,7.307,0,0,1-2.307-.444q-3.6-.6-2.087-4.316a.6.6,0,0,0,.135-.078c7.892,1.517,16.759.559,24.78.161,3.93-.195,7.878-.293,11.8-.521a17.411,17.411,0,0,0,6.017-1.16,2.079,2.079,0,0,1,.893,1.863c.181,2.017-.773,3.186-3.395,3.884M296.437,294c4.926,1.334,19.659-2.252,19.046,4.006-.458,4.675-8.717,4.438-12.8,3.643a17.977,17.977,0,0,0-6.994-.307c-.037-.081-.077-.162-.118-.242A2.946,2.946,0,0,1,296.9,301c.727.057,1.7.067,2-.514.077-.15-.086-.332-.284-.369a6.036,6.036,0,0,0-1.411.093,11.155,11.155,0,0,0-1.332.127,3.514,3.514,0,0,0-.611.172,3.931,3.931,0,0,1-.5-1.419,5.467,5.467,0,0,1,.363-2.517,10.986,10.986,0,0,1,1.918-.279c.96-.037,1.853.235,2.791.216.244-.005.451-.265.222-.4a6.645,6.645,0,0,0-4.675-.134c.31-.665.685-1.313,1.051-1.987m-.653-24.516c1.817-.058,2.809.686,4.367,1.157a21.662,21.662,0,0,0,3.988.475c1.566.155,4.272.135,5.112,1.3a3.475,3.475,0,0,1-.4,4.262,15.771,15.771,0,0,1-5.042.289,24.729,24.729,0,0,0-4.067-.141,14.14,14.14,0,0,0-5.5,1.271,6.567,6.567,0,0,1,.04-4.412c.594-1.552,1.722-2.766,1.5-4.2m-6.905-.418c-1.533.1-3.073.174-4.61.247q-4.23.2-8.466.265c-2.814.04-5.631.023-8.442-.1-2.076-.092-12.214.083-10.211-3.555a28.612,28.612,0,0,0,4.664.316c2.747.09,5.488-.085,8.229-.024,2.264.049,4.44.525,6.707.513,2.665-.015,5.245-.578,7.887-.757,2.814-.191,5.6.11,8.405.042a11.147,11.147,0,0,0,1.632-.148c2.823,2.944-4.539,3.12-5.795,3.2m.681-52c.195-2.114,2.54-3.813.563-5.612,2.873-1.343,6.424-2.425,8.583.369,1.967,2.547.7,4.834-2.2,5.889-.088,0-.176,0-.266-.008a2.792,2.792,0,0,1-1.93-1.039,2.192,2.192,0,0,0-.885-.629c-.186-.062-.4-.05-.588-.1-.745-.22-.963-.467-.942-1.033.006-.17-.357-.211-.406-.041a1.162,1.162,0,0,0,.166,1.267c.313.287.681.241,1.072.4.7.293.877.746,1.342,1.171a3.159,3.159,0,0,0,.706.464c-2.39.416-3.971,1.011-5.239,2.38a15.712,15.712,0,0,1,.024-3.48m-.038,8.718c1.76.856-3.3,2.138-3.469,2.175-1.182.261-2.391.446-3.6.625-2.809.418-5.663.741-8.516.934-2.073.139-17.378.52-16.074-2.72.6.115,1.22.176,1.757.228a122.131,122.131,0,0,0,13.5.56c4.315-.074,8.4-1.155,12.693-1.32a10.274,10.274,0,0,0,3.713-.482m-1.107-25.363c.141-1.68,1.571-3.14,1.06-4.614,1.355-.433,1.819-1.384,3.005-2.119,6.227-3.863,8.929,3.644,5.217,6.065-2.888,1.884-6.611,2.946-8.158,5.644a11.416,11.416,0,0,1-1.124-4.976m-.984-23.762c0-.005.005-.011.009-.017,3.555.945,9.073-2.352,10.711,1.5a4.457,4.457,0,0,1,.319,2.239,4.9,4.9,0,0,1-.359,1.394q-.219,1.166-1.907,1c-1.946.316-1.342.01-2.824-.39a3.065,3.065,0,0,0-1.255-.119c-.613.043-.609.654,0,.7a4.493,4.493,0,0,1,1.251.3,7.222,7.222,0,0,0-2.988,1.021,14.287,14.287,0,0,0-3.066,2.174,5.3,5.3,0,0,1-.3-1.59c.047-2.794,2.108-4.985-.224-7.48a.564.564,0,0,0-.134-.1,2.612,2.612,0,0,0,.762-.628m-.4-49.377a7.024,7.024,0,0,0,.029-2.681,18.556,18.556,0,0,0,6.006-1.782c1.838-.816,3.7-2.031,5.667-.833a4.252,4.252,0,0,1,1.935,4.5c-.335,2.337-3.1,3.4-6.046,2.762a11.211,11.211,0,0,1-1.344-.488,4.933,4.933,0,0,1-.724-.387,2.977,2.977,0,0,1-1.13-1.793c-.012-.057-.129-.051-.147,0a2.123,2.123,0,0,0,.314,1.95c-1.521.246-3.183,1.422-4.425,2.163a14.121,14.121,0,0,1-.135-3.407m.568,10.973a7.9,7.9,0,0,0,2.369-1.312,8.737,8.737,0,0,1,7.109-1.714c1.339.171,1.844.138,2.485,1.241a5.486,5.486,0,0,1,.546,2.359,4.374,4.374,0,0,1-.664,2.73c-1.09,1.581-3.246.919-4.909.378-.448-.145-.863.089-.855.378a7.72,7.72,0,0,0-4.388,1.91,21.981,21.981,0,0,0-2.71,2.255,2.914,2.914,0,0,1-.17-.965c.045-2.5,3.041-4.9,1.186-7.261m-2.552,8.912c.284,1.007,1.825,2.4,1,3.438-4.975.554-9.674,1.344-14.75,1.119a103.657,103.657,0,0,1-13.445-1.117c-.4-1.406.432-2.29.725-3.559a7.811,7.811,0,0,0-.083-3.274,14.623,14.623,0,0,0-1.138-2.914c3.852,1.865,9.321,2.087,13.748,2.377,4.248.277,11.786.8,15.16-1.592.014-.011.019-.023.032-.034a15.157,15.157,0,0,0-1.288,3.434,5.087,5.087,0,0,0,.033,2.122m.527,4.578c-.486.773-3.63,1.4-4.4,1.484-.993.108-2.109.025-3.114.03-2.335.011-4.67-.006-7-.033-1.447-.016-13.4.308-12.95-1.763,3.877,1.119,8.379,1.075,12.463,1.279a72.985,72.985,0,0,0,15.009-1m0-10.767c-4.043,1.779-10.621,1.547-15.219,1.23a130.324,130.324,0,0,1-13.222-1.909,5.281,5.281,0,0,1-.3-1.157c2.832,2.421,11.381,2.145,15.1,2.214,4.017.075,8.469.167,12.271-.968a8.145,8.145,0,0,0,2.579-1.117,4.694,4.694,0,0,1-.363,2.034.614.614,0,0,0-.852-.326m-.033-17.222c-.916,1.565-1.736,1.574-3.8,1.876a72.164,72.164,0,0,1-8.666.5c-3.668.086-16.812.431-15.845-4.233,1.654.79,4.187.962,5.867,1.186a113.539,113.539,0,0,0,15.13.6,18.706,18.706,0,0,0,8.125-1.407,15.916,15.916,0,0,1-.812,1.476m.394,1.593-.106.04c.035-.022.069-.045.1-.068l0,.028m-3.216,1.131a38.058,38.058,0,0,1-12.065,1.648A28.49,28.49,0,0,1,263,126.659a50.344,50.344,0,0,0,8.022.589c3.694-.018,8.007.037,11.7-.776m-25.359-1.4a.219.219,0,0,0,.065-.267,12.28,12.28,0,0,0,4.068,1.556c-1.477-.21-3.484-.425-3.953-.857a.466.466,0,0,0-.572.007,2.119,2.119,0,0,1,.392-.439m4.03,1.983c2.808.555,4.827,1.728,7.876,1.918,5.544.347,11.963-.4,16.734-2.655-.03,1.1-.3,2.253-.225,3.289.1,1.259.839,2.641.843,3.871.017,4.754-12.084,5.262-16.347,4.859-2.945-.278-13.77-2.445-13.309-5.038a4.048,4.048,0,0,1,.113-.462c.287-.041.548-.2.558-.464a1.042,1.042,0,0,0-.171-.536,3.626,3.626,0,0,0,.383-1.96c-.162-1.276-1.624-2.812-1.011-4.132a.215.215,0,0,0,.056.129c1.193,1.352,2.506.786,4.5,1.18M285.8,137.093c-1.469,3.546-8.746,3.385-13.155,3.325-2.136-.029-4.275-.113-6.4-.248-3.895-.248-9.048-.294-9.212-4.114.545.222,1.169.4,1.793.6,3.46,1.124,7.462,2.505,11.242,2.8,3.4.262,6.6-.485,9.848-1.092,1.828-.342,4.2-.478,5.888-1.268m9.452-30.487c.821.168,1.74.521,2.574.712,1.814.417,2.564.67,3.09,2.051.778,2.039-.156,5.86-4.193,5.268-2.485-.365-3.146-2.483-4.426-3.778-.071-.073-.245-.055-.243.048a4.9,4.9,0,0,0,1.7,3.4,7.345,7.345,0,0,0-3.035.251,8,8,0,0,0-3.371,2.505,4.325,4.325,0,0,1-.26-1.165c-.131-2.521,1.743-4.82,1.741-7.339a.156.156,0,0,0-.008-.031.709.709,0,0,0,.157-.054c1.861-1,3.755-2.386,6.273-1.872m-36.388-3.464a37.084,37.084,0,0,0,.9-3.76,8.417,8.417,0,0,0-.275-2.844,13.446,13.446,0,0,1-1.007-2.625c.466,1.4,2.547,1.656,4.548,1.931,3.944.543,8.092,1.619,12.154,1.287,2.493-.2,4.664-1.106,7.078-1.517,1.836-.313,4.434.091,6.268-.332-.293.846-1.086,1.675-1.354,2.526a6.625,6.625,0,0,0-.177,2.552c.138,1.607.623,3.209.811,4.812-.488.757-1.294,1.39-3.161,1.848-2.5.611-5.539.91-8.138,1.312-5.776.9-11.738-.082-17.187-1.538a.4.4,0,0,0-.179-.195c-.7-.414-.659-1.621-.392-2.956.258-.1.333-.361.108-.5m.174-20.993c.835,1.107,2.67.961,4.122.863a.584.584,0,0,0,.076-.017c3.359-.075,6.412.694,9.707.965a30.924,30.924,0,0,0,9.313-.794c2.135-.467,7.479-1.223,5.865-3.657q.493-.214.983-.433c1.309.971-.081,5.21-.125,6.575-.06,1.847.673,3.866.4,5.653-1.759,1.2-5.046,1.438-7.241,1.964a33.929,33.929,0,0,1-8.591,1.058,30.32,30.32,0,0,1-9.636-1.714c-.907-.325-2.449-1.359-3.683-1.242-.865-1.762,1.261-3.679.213-5.537-.585-1.039-1.909-1.645-2.309-2.813-.5-1.461.253-2.647,1.181-3.863l.188.141a2.374,2.374,0,0,0-.463,2.849m1.162-2.384a4.641,4.641,0,0,0,.681.336c3.122,1.207,6.716,1.041,10.128,1.182a83.718,83.718,0,0,0,11.48-.118A16.124,16.124,0,0,0,286.947,80c.906,1.947-11.757,3.168-12.592,3.146-3.735-.1-7.2-1.038-10.958-.936a.666.666,0,0,0-.233-.016c-1.1.105-2.826.416-3.349-.571-.321-.605.051-1.262.389-1.861m2.528,13.4a28.852,28.852,0,0,0,3.094.983,33.607,33.607,0,0,0,15.492.229c1.986-.446,4.937-.7,6.8-1.39.47.068.905.193,1.323.3-.249,1.633-4.08,1.133-5.834,1.307-2.327.232-4.357,1.04-6.614,1.433a26.264,26.264,0,0,1-9.427-.418c-1.57-.292-7.857-.783-7.795-2.42v0c1.372-.528,1.112-.72,2.962-.016m-3.815,14.151c5.036,2.41,13.009,2.778,18.55,1.765,3.037-.555,7.71-.52,10.3-1.883.04-.021.076-.046.115-.069-.722,1.86-3.845,2.262-6.318,2.56-3,.361-6,.778-9.043.871-3.645.112-12.71-.118-14.119-3.266a.822.822,0,0,0,.518.022m33.468-12.772c2.387-1.037,3.517-1.858,6.394-1.652,3.079.22,7.248.3,7.212,3.468-.028,2.422-4.108,4.127-6.556,2.149a7.3,7.3,0,0,1-1.469-1.879.4.4,0,0,0-.664.132,2.761,2.761,0,0,0,1.058,2.206,16.974,16.974,0,0,0-5.5,1.067c-1.2.369-2.784.89-3.132,1.826a.528.528,0,0,0-.327.189,6.207,6.207,0,0,0-.686,1.158,26.453,26.453,0,0,1-.638-2.851,7.036,7.036,0,0,1-.026-1.715c.113-.9.885-1.629,1.091-2.442.162-.634.347-.658.212-1.039a4.363,4.363,0,0,0,3.032-.616m-2.121-1.119c.049,0,.1.008.147.008.011.054.027.109.04.161a5.983,5.983,0,0,1,.167.846.313.313,0,0,0,.029.076,6.642,6.642,0,0,1-1.046.379,1.117,1.117,0,0,0,.663-1.471m-.328-11.015a17.357,17.357,0,0,0,.578-2.034c2.784,1.847,8.875,1.386,11.983.648,1.566-.371,2.265-1.08,3.9-.571-2.7,1.085-2.146,4.892.013,6.24.2.122.5.008.436-.187-.485-1.493-2.869-4.916.713-5.421.419.255.837.51.831.5,1.728,1.631,1.309,6.23-1.957,7.133-1.87.517-3.021.356-3.759-.138a.365.365,0,0,0-.144-.192c-.079-.054-.169-.1-.255-.151-.858-.906-.956-2.38-1.253-3.329-.079-.254-.614-.254-.7,0a4.152,4.152,0,0,0,.1,2.678c-2.4-.463-5.531,0-7,1.195-1.2.977-1.3,3.525-3.251,3.648a2.109,2.109,0,0,1-.713-.144,1.525,1.525,0,0,0,.551-1.194.091.091,0,0,0-.049-.076c.334-.576.087-.942-.1-1.718a13.448,13.448,0,0,1,.065-6.892m8.4-19.3a14.763,14.763,0,0,0,1.859.792c1.192.209,3.064.292,3.76,1.2.779,1.01-.275,2.911-1.211,3.782a3.381,3.381,0,0,1-.5.426c-2.231.008-2.153-3.355-3.853-4.211a5.976,5.976,0,0,0-2.075-.459,11.933,11.933,0,0,1-1.693-.225A5.417,5.417,0,0,0,295.39,64c.748-.465,1.151-.183,1.959-.349a1.884,1.884,0,0,0,.984-.533m-.771-1.091a.724.724,0,0,0-.2.117c-.574.514-1.105.251-1.9.391s-1.22.841-2.034.558a5.936,5.936,0,0,1-2.294-1.943,14.2,14.2,0,0,1-1.089-2.632,8.371,8.371,0,0,1,1.042-.7c1.013-.021,2.025-.122,3.036-.122a10.488,10.488,0,0,1,3.624.8,4.5,4.5,0,0,0-.317,1.715,6.187,6.187,0,0,0,.131,1.811m.6-19.307a4.013,4.013,0,0,1,.306-1.354,3.808,3.808,0,0,0,3.119,1.213,2.84,2.84,0,0,1-2.128,3.234c-.01,0-.016.008-.025.011-.123.012-.254.011-.383.013a.385.385,0,0,0-.237-.315c-.832-.453-.727-2.151-.652-2.8m-2.5-3.543a12.363,12.363,0,0,1-1.9.264,5.057,5.057,0,0,1-5.408-3.342c-.276-.6-.289-.931-.8-1.251a5.38,5.38,0,0,1,3.445-1.9,10.576,10.576,0,0,1,3.962.634c-.371.91.113,1.83.381,2.781.224.792-.167,2.019.318,2.817m-4.04-11.907a7.583,7.583,0,0,1-1.957-.173,2.261,2.261,0,0,1-1.876-2,2.933,2.933,0,0,0-1.281-2.4,4.035,4.035,0,0,1,2.949-1.811,6.2,6.2,0,0,1,4.562,1.209,5.468,5.468,0,0,0-2.4,5.175m-45.765-14a40.194,40.194,0,0,0-4.361.814,20.735,20.735,0,0,1-2.563.421c-3.65.3-7.453-2.317-4.014-4.817,2.04-.835,4.092-.462,6.144-1.055a9.4,9.4,0,0,0,3.182-1.787c3.808-2.919,7.544-4.219,13.118-4.266,4.9-.042,9.722.691,14.643.525a131.789,131.789,0,0,0,13.55-1.547c5.54-.757,10.273-.7,14.948,1.8,2.584,1.38,5.016,2.958,8.168,3.569,2.223.431,4.175.53,4.274,2.841.076,1.767-1.847,3.041-4.191,2.979-.815-.021-1.592-.231-2.4-.275a14.085,14.085,0,0,0-8.226,2.052c-4.06-2.9-8.648-5.689-14.606-5.135a1.776,1.776,0,0,0-1.23-1.631,3.2,3.2,0,0,0-3.3.58,4.339,4.339,0,0,0-2.755-.095c-1.424.316-1.472.626-3.367.089a7.434,7.434,0,0,0-1.165-.426,9,9,0,0,0-2.857.322.812.812,0,0,0-.552.084c-.135.017-.268.031-.4.037a.554.554,0,0,0-.321.115,2.413,2.413,0,0,0-2.2-.013c-1.484.692-.618,2.149-2.125,2.423-.968.175-2.342-.081-3.388.024a17.952,17.952,0,0,0-3.728.775,13.939,13.939,0,0,0-4.962,2.807c-1.365-1.142-3.132-1.425-5.324-1.212m36.684-3.354a.186.186,0,0,0-.013.134,1.833,1.833,0,0,1-.315.217,2.04,2.04,0,0,1-1.342.177,1.206,1.206,0,0,1-.943-1.529l0,0a1.859,1.859,0,0,1,1.9-.473,1.057,1.057,0,0,1,.709,1.477m-14.687,1.12a3.519,3.519,0,0,1-2.794.29q-.643-1.719,2.462-2.274a.363.363,0,0,0,.34,0c.149.02.292.036.422.044a1.4,1.4,0,0,1-.43,1.941M255.962,23.141a15.638,15.638,0,0,0-5.031.584,20.6,20.6,0,0,1-2.831.923c-1.832.218-2.911-.614-2.947-1.832a.159.159,0,0,0-.009-.037c2.117-1.224,4.737-2.564,5.942-4.339.594-.874,1.006-2.086.315-2.922a.629.629,0,0,0,.286-.164c2.973-3.066,7.9-4.44,12.881-3.712a.6.6,0,0,0,.117,0,3.917,3.917,0,0,0,3.811-.134A2.071,2.071,0,0,0,269.482,9c.039-.007.07-.011.111-.019a7.84,7.84,0,0,1,3.7.342c2.011.437,3.716-1.3,5.616-.4a.578.578,0,0,0,.22.146,1.151,1.151,0,0,0,0,.745,1.96,1.96,0,0,0,1.369,1.246c.785.234,2.538-.028,2.99-.671,5.7-.6,10.017,2.213,13.821,4.937-1.32.729-3.121,1.921-2.8,3.187.485,1.925,7.151,3.309,6.769,5.1-1.787,1.152-6.555-2.762-8.035-3.3a7.35,7.35,0,0,0-4.131-.357c-4.125.875-3.522,3.69-5.194,5.875a.913.913,0,0,0-.227.018c-2.264.515-5.151.231-7.478.162-2.76-.082-6.852.134-8.829-1.6a4.019,4.019,0,0,1-.884-1.415.309.309,0,0,0-.163-.356,4.35,4.35,0,0,0-.85-1.356,7.805,7.805,0,0,0-2.664-1.719c-5.44-2.044-10.474,2.833-14.784,4.453-.123.046-.033.172.088.155,3.061-.433,5.024-2.092,7.592-3.246,2.627-1.18,5.789-1.514,8.077.289a4.053,4.053,0,0,1,.607.6,2.318,2.318,0,0,0-.835.072.51.51,0,0,0-.407.095c-.584.439-1.134.9-1.682,1.364a1.5,1.5,0,0,1-1.781.325,7.161,7.161,0,0,0-3.309-.359.632.632,0,0,0-.422-.164m.646.648a16.561,16.561,0,0,1,2.33.388c.367.106.786.319,1.215.432a3.927,3.927,0,0,1-3.454,1.367,2.264,2.264,0,0,0-.091-2.186M248.4,33.819c-.683.056-1.486.066-1.865-.451a3.506,3.506,0,0,1-.165-1.47c.005-.976.107-2.03,1.542-2.35a9.557,9.557,0,0,0,1.489-.359c0,.928-.017,2.2-1.006,2.512a8.44,8.44,0,0,0-.23-1.6.416.416,0,0,0-.645-.063c-.505.628-.148,1.5.076,2.165a.483.483,0,0,0,.451.254c2.826.21,2.35-2.554,2.6-3.846,0-.007,0-.011,0-.018.5-1.676,1.84-2.383,4.135-2.01a9.428,9.428,0,0,0,2.665.222c1.532-.177,2.961-1.01,3.322-2.13h.025a1.7,1.7,0,0,0,.819-.365,19.309,19.309,0,0,0,2.191-1.834,1.953,1.953,0,0,1,1.223.325,11.923,11.923,0,0,0,1.272,2.593c1.148,1.427,3.436,1.217,5.48,1.346,3.722.236,8.687.978,12.254.026.327-.088.453-.3.438-.5a3.844,3.844,0,0,0,1.224-1.907c.149-.365.3-.727.479-1.075.942,1.153.2,2.736,1.422,3.854,1.187,1.082,3.282,1.2,5.025,1.179a.944.944,0,0,0,.225-.037,18.718,18.718,0,0,0,2.3-.231,4.754,4.754,0,0,1,1.772-.214c1.178.4,1.327,1.345.379,1.962a.387.387,0,0,0,.122.7,7.479,7.479,0,0,0,2.883.586c-1.145,1.625-2.548,2.213-4.216,1.737-.542-.106-1.073-.235-1.6-.38a14.378,14.378,0,0,1-.047-1.537c.009-.282.031-.563.054-.845.019-.22-.067-.7.135-.89.091-.085.029-.19-.114-.2-.747-.067-.823.529-.887.952a11.727,11.727,0,0,0-.107,2.294,10.519,10.519,0,0,0-1.383-.242,6.836,6.836,0,0,0-2.835.257c-2.727.91-2.947,3.76-5.758,4.523a.618.618,0,0,0-.249.131c-4.635.14-9.4.99-14.017.748a8.993,8.993,0,0,1-6.127-2.262c-1-.972-1.456-2.473-2.536-3.341-2.458-1.977-5.568-.875-8.347.4a2.389,2.389,0,0,0,.359-.516c.35-.726.067-1.507.1-2.252a2.178,2.178,0,0,1,1.592-2c.45-.183,1.077-.19,1.564-.359.143-.05.084-.195-.04-.228a3.329,3.329,0,0,0-3.918,1.59c-.344.925.1,1.876-.2,2.793-.417,1.265-2,1.674-3.322,2.359m36.683,3.3c-.6,3.157-8.821,2.392-12.109,2.395-3.9,0-9.838.7-10.055-3.185a5.113,5.113,0,0,0,.464.354,12.429,12.429,0,0,0,5.9,1.536,101.389,101.389,0,0,0,14.329-.466.648.648,0,0,0,.474-.229,5.739,5.739,0,0,0,1-.4m-33.145-3.822a12.642,12.642,0,0,1,5.032-1.457c2.341-.029,3.343,1.284,4.357,2.651a3.683,3.683,0,0,0-1.871,1.99,3.391,3.391,0,0,1-3.1,2.207,32.931,32.931,0,0,1-3.695.025.975.975,0,0,0-.3-.268c.238-1.74-.884-3.436-.422-5.149M250.68,45.181a.835.835,0,0,0-.114.005c-1.237.257-3.152.679-4.063-.276-.379-.4-.8-1.863-.3-2.307.31-.274,1.8-.168,2.24-.2a6.157,6.157,0,0,0,1.354-.217,2.467,2.467,0,0,1-.856,1.738,3.777,3.777,0,0,1-.552.332l-.016.005c-.013-.027-.028-.054-.041-.081a3.388,3.388,0,0,0-.263-1.12.645.645,0,0,0-1-.1c-.654.809.2,2.927,1.827,2.118a3.531,3.531,0,0,0,1.983-3.316,5.062,5.062,0,0,0-.241-1.17c-.133-.391-.545-.851-.576-1.24-.04-.5.583-.628,1.107-.54a.66.66,0,0,0,.577.315.309.309,0,0,0,.221.221,9.549,9.549,0,0,0,6.369-.379,3.718,3.718,0,0,0,1.452-1.646,6.761,6.761,0,0,1,1.8-2.476c.183.244.373.485.573.718-.754,4.983,5.571,4.506,10.805,4.617,4.3.09,14.163,1.549,13.23-3.871a9.385,9.385,0,0,0,.655-.683l.255-.292c1.052,1.051.743,2.916,2.2,3.971a7.949,7.949,0,0,0,5.317,1.133c.481-.05,2.862-.727,3.153-.437-.1-.1-.864,1.344-.878,1.387a5.56,5.56,0,0,0,.17,4.187c-.339-.078-.683-.165-1.035-.264a4.645,4.645,0,0,1-.34-1.262,5.5,5.5,0,0,1,.25-2.144c.047-.146-.222-.192-.3-.06a4.615,4.615,0,0,0-.568,3.189c-2.563-.765-5.207-1.629-6.609-.391-.719.634-.866,1.741-1.537,2.431-1.629,1.675-3.437,1.682-5.673,2a61.875,61.875,0,0,1-7.808,1c-3.363.048-7.376-.128-9.657-2.14-.91-.8-1.377-1.766-2.609-2.372-2.279-1.119-6.589-1.062-9.452-.412,1.472-1.672-.208-3.913-.2-5.857,0-.06-.112-.1-.17-.052-.634.534-.53,1.094-.32,1.767.441,1.419,1.262,3.073-.374,4.172M296.241,51.7c-1.533.271-2.7.815-4.394.527-2.421-.413-3.672-2.518-4.708-3.982.025-.019.054-.036.079-.056.987-.787,1.209-2.181,2.38-2.8q.618-1,1.833-.135l2.465.744a28.886,28.886,0,0,0,2.793.744,5.569,5.569,0,0,0-.539,2.734,4.632,4.632,0,0,0,.09,2.219m-11.361-2.286c-.9,2.936-19.423,3.327-20.624.321a4.072,4.072,0,0,0,.574.312c2.86,1.259,8.278,1.253,11.435.906a40.114,40.114,0,0,0,8.615-1.539m-33.686-3.453a.385.385,0,0,0,.125-.157c2.987-.182,7.653-.811,9.948.829a5.085,5.085,0,0,1,.929.88,10.545,10.545,0,0,0-3.623,1.965c-1.022.793-1.417,1.434-3.25.736-.363-.138-.527-.478-.955-.627a3.9,3.9,0,0,0-3.094.29c.16-.637.242-1.3.345-1.846a2,2,0,0,0-.426-2.071m-1.211,10.6c.235-.225.453-.458.656-.686,1.009-1.135,1.469-3.564,3.852-3.4.727.05.723-.788,0-.838-4.246-.291-3.569,4.513-6.889,5.382-.024,0-.041,0-.066,0a2.39,2.39,0,0,1-2.228-.743.62.62,0,0,1-.092-.465,4.416,4.416,0,0,0,2.073-.722,3.716,3.716,0,0,0,1.6-1.409c.09-.193-.254-.3-.432-.186a15.641,15.641,0,0,1-1.823,1.244c-.374.18-.878.285-1.29.452.028-.505-.236-.845-.31-1.35a1.3,1.3,0,0,1,.223-.8c.306-.251,1.2-.141,1.627-.135a16.4,16.4,0,0,0,2.921-.069c.192-.033.236-.17.181-.283a.747.747,0,0,0,.719-.379c1.322-2.94,4.052,0,6.428-.663a4.425,4.425,0,0,0,1.79-1.118,12.652,12.652,0,0,1,3.639-2.415,10.284,10.284,0,0,0,1.1,1.3c-2.8,2.849,8.227,3.353,9.808,3.334,2.782-.034,14.524.378,12.585-3.686.191-.1.372-.2.546-.3.9,1.772,2.206,3.764,4.757,4.474a8.823,8.823,0,0,0,3.462.062c.883-.086,1.111-.4,2.077-.269,0,1.391.155,3.5,1.29,4.788-.684-.2-1.371-.452-2.042-.6a5.041,5.041,0,0,1-.453-1.776c-.007-.122-.235-.145-.286-.028a2.085,2.085,0,0,0,.006,1.684,28.662,28.662,0,0,0-4.055.086.679.679,0,0,0-.491-.083c-1.386.243-1.45.762-2.428,1.411-1.833,1.217-4.421,1.4-6.776,1.639-4.3.43-8.286.809-12.573.138a8.69,8.69,0,0,1-5.595-2.695,6.6,6.6,0,0,0-2.425-1.628c-2.843-.971-7.758.1-11.086.748m35.257,4.2c-1.744,2.429-8.771,1.97-11.529,1.855a38.9,38.9,0,0,1-6.564-.478c-2.795-.605-4.293-2.058-4.821-3.968.464.4.943.864,1.529,1.384,2.15,1.911,5.211,1.668,8.34,2.04,3.108.369,6.529-.485,9.644-.635,1.072-.052,2.267-.067,3.4-.2m-38.661,1.591a7.663,7.663,0,0,0,4.473-1.476,4.731,4.731,0,0,0,1.463-3.817c1.622-.177,3.243-.364,4.869-.426a9.63,9.63,0,0,1,2.272.141,4.6,4.6,0,0,0-2.272,2.411c-.143.375-.1.8-.242,1.162-.442,1.108-1.414,1.347-2.808,1.425s-2.628-.378-3.985-.2a.664.664,0,0,0-.405.185c-2.069.977-1.237,3.129-1.877,4.634-.314.737,1.272,1.059,1.567.319a5.723,5.723,0,0,0,.343-2c.025-.73-.078-1.615.806-2.076,1.138-.178,2.454.225,3.639.125a7.3,7.3,0,0,0,3.169-.945c.763-.535.633-1.114.749-1.835.225-1.4,1.188-2.11,2.515-2.814a5.241,5.241,0,0,1,.67.381c-.494,3.768,4.573,5.46,9.129,5.816,4.011.314,14.919,1.5,16.256-2.917.025-.007.052-.011.077-.019a6.313,6.313,0,0,0,2.132-1.166,5.17,5.17,0,0,0,1.06,2.534,10.689,10.689,0,0,0,1.963,1.983,3.167,3.167,0,0,0,1.549,1.4c1.4.618,3.378.128,4.471,1.147.913.851,1.047,2.09,1.784,2.9l-.4-.088a.571.571,0,0,0-.1-.057c-2.416-.851-5.794-2.2-8.554-1.577a9.552,9.552,0,0,0-2.212,1.053,18.511,18.511,0,0,1-7.942,1.7,59.859,59.859,0,0,1-13.318-.322c-2.738-.45-5.22-.727-7.518-2.035-.5-.283-.811-.537-1.166-.761a2.261,2.261,0,0,0,.884.012c.316-.073.523-.426.216-.605a3.419,3.419,0,0,0-1.608-.3c-.143,0-.282,0-.421,0-.031,0-.054-.014-.086-.015-2.575-.084-4.159,1.073-6.373,1.835a2.834,2.834,0,0,0,.173-.336c.721-1.681-.629-3.534,1.52-4.78a.1.1,0,0,0-.032-.187,1.747,1.747,0,0,0-2.186,1.244,11.879,11.879,0,0,0-.195,2.541c-.157,1.146-.8,1.48-1.821,2.142a5.944,5.944,0,0,1-4.2-.757c-2.15-1.471-.282-4.619,1.976-5.593m39.3,8.125c-2.623,1.7-8.108,1.347-11.317,1.565-3.819.259-9.236-.037-12.068-2.285.868.2,1.779.335,2.662.488a48.716,48.716,0,0,0,10.917.951c3.145-.141,6.726-.043,9.806-.72m-36.022,6.254c.062-.68-.253-1.414.52-2.059.176-.147.062-.4-.222-.4-1.176,0-1.412.719-1.42,1.506,0,.238.2.585.1.815a1.057,1.057,0,0,1-.363.444.674.674,0,0,0-.388.215,5.355,5.355,0,0,1-1.828.206,5.709,5.709,0,0,1-4.4-1.849,4.727,4.727,0,0,1-.963-3.2c-.021-1.429.375-2.457,2.731-2.521a11.26,11.26,0,0,0,2.674-.065,10.368,10.368,0,0,0,2.458.03c3.281-.342,5.74-2.414,8.961-2.557a1.044,1.044,0,0,0,.2-.037c.142.087.293.169.426.263a2.329,2.329,0,0,0-1.362,1.918c-.286,1.412.434,3.965-3.06,3.84a19.049,19.049,0,0,1-3.3-.773c-1.171-.3-2.632-1.032-3.765-.257a1.6,1.6,0,0,0-.6,1.085c-.055.195.056.42-.019.6q.4,1.106-1.2,1.022-1.658.8-1.488-.775c.026-.653-1.259-.623-1.35,0-.184,1.267,1.06,2.424,2.894,2.318a3,3,0,0,0,1.819-.687c.86-.748.12-1.708.667-2.35,1.111-1.3,6.1,1.193,8.117.452,3.2-1.174.631-4.794,3.167-5.993a9.886,9.886,0,0,0,1.746,1.2,7.037,7.037,0,0,0,.77.316c2.055,3.371,9.564,3.644,13.8,3.341,4.315-.309,10.766.672,12.811-2.971.005-.01,0-.018.006-.028.321-.151.637-.313.967-.491a7.308,7.308,0,0,1,1.22-.526c1.216.953.267,2.378.483,3.568a6.627,6.627,0,0,0,1.8,3.017c.875.972,2.826,1.71,4.185.7a.461.461,0,0,0,.075-.083c.006-.006.013-.008.019-.015s.017-.024.026-.035a.371.371,0,0,0,.034-.046c.993-1.286.1-2.677-1.62-3.294a5.152,5.152,0,0,0-3.265-.057c-.277-.945.056-1.756-.1-2.747a1.873,1.873,0,0,0-.7-1.242c2.55-.473,5.156.42,7.676,1.364a.817.817,0,0,0,.475.031c1.159.313,2.7.713,3.64.309,1.007.7,1.015.651,1.394,1.847.413,1.307-.047,1.844-.794,2.972-.912,1.377-1.469,2.638-3.663,3.081a11.987,11.987,0,0,1-5.965-.522c-.154-.044-.294-.079-.427-.111.07-.017.14-.037.212-.052.144-.031.123-.209-.037-.2-.357.019-.706.061-1.053.113a6.448,6.448,0,0,0-1.042.034.545.545,0,0,0-.485.287c-2.847.762-5.467,2.26-8.616,2.54A98.473,98.473,0,0,1,269.8,80.2a33.311,33.311,0,0,1-6.851-.587c-2.571-.657-3.289-2.349-5.338-3.259-1.945-.865-5.34-.173-7.759.37M292.3,73.3c1.068-1.076,4.539.562,3.416,2.11-1.3.9-2.852-1.184-3.416-2.11M239.9,80.3c1.034-.588,2.194-.447,3.8-.2.287.044.588.1.895.155a1.365,1.365,0,0,0-1.339.748c-.444.809-.077,1.671-.705,2.46a2.739,2.739,0,0,1-1.386.972c-.926.2-1.006-.459-1.13-.979A6.489,6.489,0,0,1,239.9,80.3Zm12.048,7.553c-2.462-1.684-4.842-1.772-7.562-1.237a7.53,7.53,0,0,0,2.523-5.677c-.016-.256-.47-.29-.587-.058a22.729,22.729,0,0,1-1.807,3.407c-.9,1.225-3.03,3.935-5.812,1.545-1.2-1.03-.738-3.576.146-4.627a4.513,4.513,0,0,1,.571-.569,3.674,3.674,0,0,0-.3,2.693c.142.738.175,1.812,1.45,1.9a3.857,3.857,0,0,0,2.834-1.25,2.769,2.769,0,0,0,.673-1.3c.157-.77.09-1.326.828-1.964.191-.165.086-.371-.161-.437,2.859.539,6.369,1.4,8.377-.293.026-.012.052-.015.078-.03a7.067,7.067,0,0,1,2.182-.354,3.427,3.427,0,0,0,1.434-.585,2.347,2.347,0,0,0,.78-.962c.054.023.107.041.159.065a5.779,5.779,0,0,1,1.1.687,3.808,3.808,0,0,0-1.507,5.059,13.865,13.865,0,0,0,.967,1.279,4.661,4.661,0,0,1,.683,4.049,3.234,3.234,0,0,0,.106,2.684c-.184.186-.386.338-1.159.306-1.823-.076-4.63-3.4-6-4.335M244.827,92.8a3.961,3.961,0,0,1,2.711,1.185,3.9,3.9,0,0,1,.523,3.345,2.358,2.358,0,0,1-4.358.25c-.5-.917-.306-1.925-.573-2.873-.1-.372-.708-.4-1.014-.174a4.331,4.331,0,0,1,2.711-1.733m10.806,9.258a17.029,17.029,0,0,0-2.851-1.345,9.143,9.143,0,0,0-1.177-.264,3.778,3.778,0,0,0,1.625-1.968c.12-.349-.566-.482-.724-.148-1.282,2.7-6.267,3.236-9.231,1.65a3.877,3.877,0,0,1-1.674-4.024,3.613,3.613,0,0,1,.306-1.063,4.091,4.091,0,0,0,2.227,4.694,3.831,3.831,0,0,0,4.985-1.171,4.332,4.332,0,0,0-.423-4.934,4.553,4.553,0,0,0-1.576-1.039,13.319,13.319,0,0,1,6.176,1.1,31.357,31.357,0,0,0,4.223,1.912.91.91,0,0,0,.24.031c.065.135.128.272.184.417a10.5,10.5,0,0,1,.228,6.6c-.034.131-.078.268-.124.406a10.93,10.93,0,0,1-2.416-.854m4.458,7.877a38.691,38.691,0,0,0,12.425,1.475,73.868,73.868,0,0,0,13.446-1.455,6.934,6.934,0,0,0,1.858-.669c-.162.54-.357,1.074-.56,1.607a.763.763,0,0,0-.686-.132,16.9,16.9,0,0,1-5.384,1.176,18.259,18.259,0,0,0-4.41.472c-.109.029-.1.158.028.156,3.15-.06,7.862,1.007,10.228-1.089a18.1,18.1,0,0,0-.9,2.778c-.467,2.248,1.408,4.5.972,6.636a.633.633,0,0,0-.117.05c-3.366,2.161-7.407,2.061-11.589,1.915a110.747,110.747,0,0,1-12.758-.717c-2.916-.443-5.517-.51-5.173-3.951a1.18,1.18,0,0,1,.037-.167.458.458,0,0,0,.186-.48,15.626,15.626,0,0,0,.932-1.738,6.958,6.958,0,0,0-.587-5.445.274.274,0,0,0-.171-.135l-.033-.07c4.784,2.46,10.7,3.012,16.453,2.673.517-.031.726-.653.133-.723-2.976-.352-6.126-.012-9.066-.483a34.811,34.811,0,0,1-7.649-2.236,2.136,2.136,0,0,0-.209-.38.418.418,0,0,1-.028-.066,10.156,10.156,0,0,0,2.618,1m-10.35,4.723c-.8-.082-1.633-.038-2.454-.059a4.637,4.637,0,0,0,1.767-1.623c.931-1.53.587-3.206-.035-4.749-.043-.107-.277-.091-.271.027.068,1.325.262,2.8-.444,4.046a4.989,4.989,0,0,1-2.911,2.028,7.644,7.644,0,0,1-3.982-3.857,4.649,4.649,0,0,1-.293-1.091,6.271,6.271,0,0,0,1.458,2.447c1.162,1.232,3.551,1.9,4.574.19a3.822,3.822,0,0,0-.975-4.774,2.59,2.59,0,0,0-2.3-.862c-.733.174-1.183.7-1.067,1.239.023.108.23.2.368.154.242-.073.527-.325.715-.375,1.132-.3,1.878.819,2.173,1.389.368.712.691,1.949.134,2.643-1.6,1.993-3.52-.638-3.951-1.583a7.936,7.936,0,0,1-.425-2.709c1.913-1.892,7.054-1.657,10-.559,2.491.929,4.021,2.594,5.7,4.159a9.167,9.167,0,0,1-.8,6.365c-2.281-.167-4.523-2.2-6.981-2.447m1.079,13.237c1.525-1.385,2.159-3.351.886-4.869-.267-.319-.929-.112-.813.253,1.116,3.491-3.994,6.815-7.647,3.685a5.748,5.748,0,0,1-1.994-3c-.263-2.537,2.065-2.781,4.149-3.2,3.525-.715,5.066-.185,7.838,1.273a6.231,6.231,0,0,0,2.709.872,3.075,3.075,0,0,0,1.214,1.714.389.389,0,0,0-.232.041c-1.336.686-1.552,1.24-1.319,2.492a28.846,28.846,0,0,1,.628,3.346c-1.489-1.262-3.843-2.561-5.419-2.607m2.692,15.348a13.609,13.609,0,0,0-2.826-1.705,4.152,4.152,0,0,0-1.412-3.791c-.329-.29-1.078.021-.885.38.985,1.821,2.277,3.775-1.974,4.581-1.7.323-4.648-.523-5.38-1.669a5.433,5.433,0,0,1-.459-2.668c-.026-1.777.213-2.937,2.283-3.9,3.048-1.424,4.331.06,7.008.491,1.5.242,3.1.058,4.654.3,1.59.245.365.344,1.736.392l.053.034a2.862,2.862,0,0,0-.166,2.607c-1.074,1.871.455,2.984.99,4.91a7.657,7.657,0,0,1,.283,2.2,20.881,20.881,0,0,1-3.905-2.16m3.794,7.959c.127.044.254.088.382.128-3.179,2.762,12.528,2.684,13.365,2.7,2.3.047,17.427,1.6,15.815-2.46.836,1.493-.32,4.124-.179,5.621.226,2.4,2,4.859-1.1,6.685-1.977,1.163-7.591,1.166-9.975,1.085-2.812-.1-5.31-.65-8.023-.99-4.666-.584-12.478,1.724-10.618-4.013.425-1.308,1.533-3.081,1.086-4.454a5.042,5.042,0,0,0-.79-1.213,13.6,13.6,0,0,0,2.1.643,28.778,28.778,0,0,0,10.307.819c.575-.07.391-.686-.129-.712-1.357-.066-2.682.124-4.031.089a17.866,17.866,0,0,1-2.937-.46c-1.506-.277-4.386-.4-5.943-1.268-.5-.827-.637-1.649.669-2.2m28.075,13.76c-2.153,1.873-10.937,1.469-13.17,1.5-3.272.047-11.823.842-13.581-2.012,3.02.693,7.694-.016,10.45.491a35.456,35.456,0,0,0,10.741.848,33.046,33.046,0,0,0,5.561-.827m-31.872-7.91a10.728,10.728,0,0,0-3.661-.515,4.7,4.7,0,0,0,1.937-1.838c.1-.187-.251-.3-.423-.182-2.583,1.7-6.48,3.888-9.125.568-2.023-2.539-.436-6.91,3.987-7.189,3.053-.193,4.783,1.132,7.039,2.278a5.111,5.111,0,0,0,3.47.748.379.379,0,0,0,.031.044c-1.363.357-1.909,1.059-1.69,2.268.257,1.415,1.983,2.362,1.843,3.949a4.929,4.929,0,0,1-.336,1.305,10.087,10.087,0,0,0-3.073-1.437m3.6,15.059a48.974,48.974,0,0,0-4.431-2.739,9.331,9.331,0,0,0-1.618-.769,7.968,7.968,0,0,1,1.925.017c.787.107,1.12-.72.335-.9a7.237,7.237,0,0,0-3.911.286l-.086.025a5.849,5.849,0,0,0,.5-.579,2.985,2.985,0,0,0,.478-3.222c-.08-.148-.357-.127-.377.037a5.528,5.528,0,0,1-.935,2.824,8.421,8.421,0,0,1-2.026,1.621,5.36,5.36,0,0,1-2.167.028c-2.447-.477-3.666-2.364-3.348-4.075,1.144-6.163,9.831-2.485,14.529-1.263-1.139,1.432-.339,2.4.386,3.921a9.609,9.609,0,0,1,.749,4.782m-.436-8.532a3.924,3.924,0,0,0,1.226.66c.772,4.418,11.857,3.217,15.9,3.186.876-.006,2.4.058,4.11.057a66.642,66.642,0,0,1-9.338.28c-4.7-.176-9.107.23-11.862-3.184-.069-.085-.236-.027-.21.066.806,2.957,4.261,3.606,7.831,3.737,5.436.2,11.823,1.169,16.87-.757.165-.063.207-.169.178-.268a12.393,12.393,0,0,0,4.175-.92c-.077.046-.152.09-.226.125a13.682,13.682,0,0,1-1.873.806c-.2.06-.129.272.089.24a10.368,10.368,0,0,0,2.12-.465c.455-.17,1.364-.431,1.292-.888a.24.24,0,0,0-.2-.2,1.014,1.014,0,0,0-.717.105,2.052,2.052,0,0,0,.856-1.062c1.062,2.025.153,4.062-.161,6.225a7.066,7.066,0,0,0-.052,1.241,1.042,1.042,0,0,0-.01.774c.008.021.03.032.045.049a4.1,4.1,0,0,1-.614,2.772c-3.13,4.389-10.923,1.748-15.9,1.9-2.249.068-4.332.855-6.575.9a7.58,7.58,0,0,1-4.606-1.066c-1.489-1.055-1.2-2.331-1.142-3.744a19.342,19.342,0,0,0,.114-4.792c-.381-1.848-2.557-3.927-1.326-5.773m15.843,17.325c-1.549-.013-14.622.4-13.99-2.2,2.943,1.95,9.847-.089,13.058.1,3.163.19,5.818,1.088,9.03.441a30.728,30.728,0,0,0,4.793-1.363c2.077,3.546-10.176,3.043-12.89,3.02m-16.8,3.385a7.743,7.743,0,0,0-1.706-1.078c.165-.027.328-.054.489-.073.792-.091.462-1-.335-.9-2.754.349-5.281,2.137-8.248,1.319-3.12-.859-3.76-5.012-2.81-7.058,1.047-2.255,4.976-2.1,7.658-1.5a26.036,26.036,0,0,1,6.111,2.665c-1.169.965-1.179,1.9-.657,3.237.677,1.734,1.511,3.343,1.516,5.171a17.991,17.991,0,0,0-2.018-1.789m2-2.773.089.037c1.4.54,2.9.754,4.28,1.409,2.612,1.245,5.389.908,8.334.512.445-.06.291-.517-.1-.544-3.008-.212-5.238.615-8.065-.764-1.382-.673-3.39-.83-4.833-1.454-.36-1.066-.526-2.1.057-2.8a.277.277,0,0,0,.174-.092,2.78,2.78,0,0,0,.338.442c-2.894,4.083,13.924,3.438,15.976,3.448,1.583.007,10.244.092,12.748-1.6.046,1.385-.728,2.746-.775,4.2a12.034,12.034,0,0,0,.653,3.479,1.257,1.257,0,0,0,0,.292.241.241,0,0,0,.108.161,8.489,8.489,0,0,1,.189,1.076c.666,6.735-11.111,4.01-16.1,3.375-5.162-.657-12.47,1.777-12.488-4.362,0-.065.006-.129.007-.194a.326.326,0,0,0,.109-.126,1.136,1.136,0,0,0-.023-.939,10.836,10.836,0,0,0,.156-3.175,13.825,13.825,0,0,0-.84-2.377m28.708,12.095q-.416,1.118-.832,2.237c-.528.072-1.058.145-1.585.22-.705.2-1.507.3-2.23.5a28.875,28.875,0,0,1-8.059.825c-2.176-.007-4.356.018-6.532-.023-.909-.017-1.826-.034-2.734-.086a10.994,10.994,0,0,1-3.637-.5q-3.369-.485-1.627-3.942c3.584,1.185,10.17.485,12.635.881,3.321.534,6.327,1.448,9.79.985a20.626,20.626,0,0,0,4.812-1.1m-28.576,2.634a4.332,4.332,0,0,0,.445.409c3.08,2.377,9.878,1.645,13.806,1.711,2.793.047,5.663.281,8.37-.329,1.975-.446,4.815-.757,6.556-1.478a3.818,3.818,0,0,0,1.161-.721c.427,1.342-.888,4.206-.752,5.48.181,1.7,1.1,3.225,1.734,4.837a.254.254,0,0,0,.122.318c1.22,3.4-3.212,2.653-6.356,2.964-3.1.307-6.105.709-9.249.774-2.935.061-5.9.175-8.837.157-2.361-.015-5.882.4-6.19-2.34-.037-.325.465-.683.462-1.047a49.73,49.73,0,0,0-.35-5.671,23.037,23.037,0,0,0-.613-2.444A15.936,15.936,0,0,0,261.769,200a27.346,27.346,0,0,0,10.96.144c.4-.1.287-.474-.093-.511-2.307-.226-4.694.087-7.03-.051-2.054-.122-5.638-.438-7.652-1.564a4.8,4.8,0,0,1-.1-1.769m14.444,16.2c-1.474-.047-15.823,1.211-13.984-1.957,3.592,1.939,13.3.511,16.121.406,4.215-.157,8.346-.828,12.554-.834a15.32,15.32,0,0,0,1.854-.068c2.028,3.348-14.893,2.505-16.545,2.453m-16.472-10.5a13.321,13.321,0,0,0-2.857-2.074c.516-.216.627-.836-.11-.963-1.553-.268-2.4.41-3.869.487-3.746.2-4.223-4.048-2.839-5.679,2.672-3.148,8.272-.158,10.823,1.785-1.713,1.964.138,3.162.6,5.468.2,1,.451,2.092.56,3.17a19.858,19.858,0,0,0-2.306-2.193m-2.8,16.4a6.557,6.557,0,0,0,1.082-.008.159.159,0,0,0,.055-.31,6.463,6.463,0,0,0-2.285-.382l-.249-.014-.027-.013c-2.333-1.067-.511,1.8-4.02-1.386-1.219-1.106-1.676-4.006-.18-5.083l1.209-.157a.939.939,0,0,0-.168.3c-.039.129.166.287.338.192a2.142,2.142,0,0,1,.34-.19c.755-.254.77-.042.989.345a3.48,3.48,0,0,1,.425,1.416,2.819,2.819,0,0,1-.005,1.059c-.106.308.1.538-.795.281a3.544,3.544,0,0,1-.331-.187c-.146-.075-.346.025-.346.147a1.253,1.253,0,0,0,1.578.975c1.1-.235.714-1.565.64-2.142a3.307,3.307,0,0,0-1.047-2.408l2.149-.279a18.292,18.292,0,0,1,1.87.991c.915.495,1.762.966,2.736,1.379-1.068.519-.858,1.295-.586,2.44a14.726,14.726,0,0,1,.524,6.159c0,.017-.011.034-.014.052a12.566,12.566,0,0,0-3.88-3.177m4.017,6.17c-.071-.108-.145-.213-.21-.331a1.5,1.5,0,0,0,.5-.521c0-.05.005-.1.005-.151a.433.433,0,0,0,.3-.488,3.374,3.374,0,0,0-.211-.615c.157-1.212.47-2.5.511-3.682.042-1.254-1.071-5.015.141-5.832,4.011,1.28,13.769.567,14.962.62,4.785.213,10.791.8,15.3-.939a3.937,3.937,0,0,0,.883-.485c.7,1-.777,3.916-.827,4.97-.071,1.489.341,3,.412,4.45a.3.3,0,0,0,.007.238c0,.063.007.127.006.19a6.172,6.172,0,0,0,.53.789,3.657,3.657,0,0,1-4.223,2.6c-.781.163-1.9.142-2.7.242-3.123.394-6.11,1.127-9.3,1.234-2.948.1-5.9-.142-8.84-.3-1.136-.063-2.4-.049-3.523-.187a4.13,4.13,0,0,1-2.956-.928c2.919,1.319,8.033.723,10.971.685,3.048-.039,6.136-.071,9.17-.3,3.142-.234,6.167-.953,9.332-1.02.64-.014.643-.73,0-.736-4.894-.044-9.782,1.078-14.714,1.254-4.293.154-11.814,1.159-15.519-.76m-.062,4.023a.34.34,0,0,0,.047-.027c2.473,2.772,17.294,1.879,19.819,1.636,3.54-.34,10.6-.462,13.335-2.436a5.283,5.283,0,0,1,.056,1.557c-.337.1-.614.253-.991.392a13.154,13.154,0,0,1-2.542.551,20.065,20.065,0,0,0-4.524.923.091.091,0,0,0,.031.177,22.307,22.307,0,0,0,5.563-.374,9.8,9.8,0,0,0,2.4-.561,7.99,7.99,0,0,0-.02,1.039,28.341,28.341,0,0,1,.017,6.368,7.469,7.469,0,0,0,.713,3.7c.073.18.339.34.528.506-1.653,1.069-4.956.987-6.97.983-2.059,0-4.113-.164-6.169-.234-.257-.008-.317.294-.062.334a43.883,43.883,0,0,0,9.065.627c1.27-.065,3.246-.09,4.331-.752-.3.979-2.048.8-3.456.84-5.423.159-10.813-.337-16.236.015a45.931,45.931,0,0,1-8.252-.043,28.636,28.636,0,0,0-3.16-.258l-1.374.033c-1.323.248-2.215-.063-2.694-.912,1.892.273,3.81.173,5.7.521a12.054,12.054,0,0,0,5.188.277c.359-.089.455-.563,0-.611-.87-.094-1.705-.054-2.578-.109-1.215-.077-2.351-.405-3.552-.53a17.036,17.036,0,0,0-4.886.214,3.748,3.748,0,0,1-.265-1.106c.007-.006.008-.014.015-.021a.382.382,0,0,0,.069-.06c1.377-1.806,1.325-4.016,1.227-6.041-.026-.537-.483-1.889-.787-3.238,1.4.578,3.28.439,4.943.473,4.938.1,10.02.252,14.935-.139.551-.044.573-.622,0-.645-6.427-.259-13.71.718-20.03-.437-.214-1.247-.194-2.356.559-2.632m-1.922,7.509a7.1,7.1,0,0,0-1.982-1.75,2.022,2.022,0,0,1,1.009-.579c.877-.052.889-1.065,0-1.019-1.275.068-1.84.9-2.984,1.29-3.052,1.029-4.668-1.2-5.029-3.1-.376-1.98,1.767-3.609,4.364-3.694q1.347-.371,1.788.67.434.454.9.889a14.452,14.452,0,0,0,1.4,1.24,1.62,1.62,0,0,0,.07.485c.386,1.25,1.252,2.353,1.438,3.713a19.054,19.054,0,0,1,.231,3.134c-.393-.48-.87-.926-1.211-1.277m1.528,8.19a.2.2,0,0,0,.047-.112c1.685.238,3.822.235,5.294.352,2,.159,3.913.549,5.931.546,2.128,0,4.244-.274,6.375-.3,4.642-.056,9.281.277,13.921.137a14,14,0,0,0,4.225-.443c.329,1.975-.682,2.884-3.059,2.708l-1.446,0c-1.462,0-2.907-.2-4.371-.178-2.755.033-5.46.514-8.211.618-2.832.108-5.683.152-8.519.152-1.233,0-2.464-.018-3.7-.037-1.019-.015-4.426.013-6.14-.813a.509.509,0,0,0-.468-.281c-.665-.508-.8-1.253.118-2.353m-.453,17.711c-.052-.846.716-2.048.776-2.981a12.867,12.867,0,0,0-.126-2.324.356.356,0,0,0-.021-.189q-.028-.226-.053-.451c-.181-1.682-1.2-4.616-.846-6.812,1.528,1.477,4.316,1.2,6.776,1.188,2.306-.011,4.658-.116,6.959-.033,1.06.038,6.354-.116,6.872.013s.782-.523.233-.622c-2.272-.408-4.757-.094-7.105-.1-3-.009-11.561,1.235-13.6-1.022a3.094,3.094,0,0,1,.582-1.093,5.308,5.308,0,0,0,.785.381c2.2.854,5.529.773,7.933.833,3.508.088,7.051.036,10.558-.082,3.309-.111,6.512-.617,9.838-.489,2.214.085,4.717.364,6.722-.53a4.8,4.8,0,0,0,.927-.546c1.333,1.113.52,3.377.5,4.686-.02,1.339.081,2.688.145,4.026a20.445,20.445,0,0,0,.74,5.61,3.968,3.968,0,0,1,.324,2.009.619.619,0,0,0-.2-.017,77.551,77.551,0,0,1-8.356,0,40.853,40.853,0,0,0-6.463.684c-.118.018-.1.138,0,.164,2.465.615,5.374-.288,7.988-.083,2.218.173,4.391.57,6.5.034a4.884,4.884,0,0,1-1.977.728c-1.348.266-3.361-.135-4.739-.132-3.729.006-7.338.868-11.038.861-3.139-.006-6.094-.469-9.277-.374-3.822.114-11.076,1.066-11.345-3.336m-2.282,15.266a14.917,14.917,0,0,0-5.059.733c-.177.079-.149.291.059.331a7.035,7.035,0,0,0,1.71.079,14.754,14.754,0,0,1-5.361,1.269c-3.347,0-5.894-1.687-6.106-4.175a3.767,3.767,0,0,1,2.094-3.155c1.334-.56,3.548-.021,4.908.185a5.391,5.391,0,0,0,4.155-.809c2.1-1.4,3.836-2.973,6.018-4.334a2.1,2.1,0,0,0,.939,1.106c-1.253.431-2.827,1.37-2.884,2.509-.028.553.942,1.938,1.189,2.6a18.163,18.163,0,0,1,1.023,4,7.713,7.713,0,0,0-2.685-.338m15.123,8.166c-4.32-.952-8.894-.018-13.282-.1a31.476,31.476,0,0,1,1.573-3.53,9.379,9.379,0,0,0,.322-3.1c.248-.148.352-.41.037-.6-.03-.018-.061-.032-.092-.05-.014-.157-.023-.316-.042-.473-.244-1.935-1.652-4.175-1.541-6.155.131.016.28.038.484.082a31.644,31.644,0,0,0,7.459.731c2.839-.1,5.307.378,8.08.408,3.356.037,6.113-.435,9.526.009.216.028.327-.163.147-.258-3.305-1.75-8.357-.136-12.121-.422-2.686-.2-5.579.145-8.211-.277-1.3-.209-2.488-.617-3.813-.806a7.817,7.817,0,0,0-1.481.016,3.427,3.427,0,0,1,1.551-2.171c.006,0,0-.009.009-.014,4.186,2.206,16.645,1.733,19,1.709,1.7-.017,13.605.258,18.08-1.607.756,1.688-.7,3.154-1.32,4.718a7.018,7.018,0,0,0-.366,3.738,20.172,20.172,0,0,0,3.113,7.636,46.266,46.266,0,0,1-10.4,1.625c-3.3.056-6.558-.388-9.857-.121-6.673.54-13.058-.063-19.729-.193a.466.466,0,0,0-.317-.189c-.1-.021-.148-.118-.153-.261,1.971.158,3.894-.164,5.886-.155,2.45.011,4.935.577,7.365.338.38-.037.516-.43.1-.523m-12.755,1.529a.179.179,0,0,0,.027-.284c3.341.351,6.71.589,10.07.808,3.774.245,7.2-.115,10.936-.193,6.515-.134,12.306.692,18.355-1.221a.4.4,0,0,0,.082.075q.382,3.993-4,3.627l-1.467-.02c-1.458.04-2.882.012-4.335.146-3.223.3-6.369.867-9.624,1-3.168.131-6.332,0-9.491-.176q-2.374-.134-4.739-.336c-.637-.055-9.543-.481-5.816-3.427M247.6,301.223c-1.2.2-2.142.764-3.29.991a9.777,9.777,0,0,1-2.269.195,4.675,4.675,0,0,0,2.341-2.808c.066-.452-.142-.663-.438-1.046-.393-.506-.439-1.266-1.115-1.637-.623-.341-2.951-.785-3.584-.341a.073.073,0,0,0-.031.088c.3.519,1.626.455,2.256.586,1.029.215.766.534,1.008,1.094.2.465.843.725.814,1.241a3.2,3.2,0,0,1-1.389,1.9c-.522.267-.353-.025-.873-.025a.53.53,0,0,0-.473.2.308.308,0,0,0,0,.409,1.654,1.654,0,0,0,.212.171,4.169,4.169,0,0,1-3.32-3.336c-.818-4.162,6.814-3.053,10.334-3.39a11.146,11.146,0,0,0,5.2-1.55c.373,1.123,1.107,2.32,1.549,3.517a9.317,9.317,0,0,1-1.451.2c-.682.033-1.358-.054-2.037-.027-.085,0-.133.094-.047.127a6.671,6.671,0,0,0,3.647.027,4.9,4.9,0,0,1,.245,1.243c.006.141.005.279.007.417-1.934.306-3.635-.311-5.541-.134a10.647,10.647,0,0,0-3.6,1.116c-.066.031-.024.106.053.093a15.313,15.313,0,0,1,5.515-.293,11.123,11.123,0,0,0,3.544.144c-.021.254-.053.5-.1.752a41.383,41.383,0,0,0-7.175.077m7.741,2.073a8.816,8.816,0,0,0,.578-4.246,7.366,7.366,0,0,0-.79-3.61c-.642-1.006-1.467-1.292-1.629-1.93a56.723,56.723,0,0,1,6.568.215,62.184,62.184,0,0,1,6.126,1.443c3.168.707,5.535-.766,8.728-.685,2.918.074,5.189,1.088,8.061.28,1.8-.505,3.256-1.545,5.259-1.721,1.67-.147,2.912.085,4.521-.369.31-.087.306-.5-.085-.466-2.8.222-5.5-.032-8.1.86-2.419.832-3.79,1.39-6.582,1.013a20.516,20.516,0,0,0-4.234-.375c-1.422.1-2.655.663-4.032.851-2.578.352-4.4-.462-6.745-.954a26.08,26.08,0,0,0-9.51-.363,4.673,4.673,0,0,1,1.16-2.239,9.889,9.889,0,0,1,1.236-1.037,4.289,4.289,0,0,0,.543.286c2.481,1.072,6.665.984,9.4,1.243a82.451,82.451,0,0,0,10.441.4c3.746-.122,7.332-.884,11.054-1.088,2.6-.142,5.745.444,8.122-.56,1.67,2.343-.848,3.48-1.543,5.57a9.576,9.576,0,0,0-.486,4.042c.188,1.377.963,2.638,1.277,4.027.212.942,1.44,3.232,1.593,4.292-6.227,2.048-14.327,1.649-21.043,2.095-7.265.481-14.265.257-21.515.135a.426.426,0,0,0-.078-.114c-2.447-2.331.718-4.762,1.7-6.988m-2.466,26.3c.38-1.307.05-3.009.022-4.342-.037-1.785-1.05-4.638-.947-6.981,2.557.774,5.559.82,8.255,1.04a99.534,99.534,0,0,0,14.661.1c6.918-.449,16.116,1.5,21.795-2.278.471-.313-.142-.9-.678-.649-6.245,2.906-14.758,1.57-21.846,2.028a95.656,95.656,0,0,1-10.788.1c-3.474-.165-7.937-.029-11.321-1.065a3.427,3.427,0,0,1,1.263-2.249,5.881,5.881,0,0,0,.607.345c2.287,1.114,5.532,1.2,8.165,1.413,3.545.291,7.073.4,10.637.413,7.033.029,14.489-.087,21.346-1.382a6.941,6.941,0,0,0,2.345-.817.148.148,0,0,0,.018.03c1.569,1.636-.059,3.289-.756,4.916a10.54,10.54,0,0,0-.742,4.414c.1,3.177,1.846,6.177,2.661,9.275q-.423.185-.858.35a.823.823,0,0,0-.271.106c-6.458,2.345-14.881,1.631-21.828,1.743-3.84.063-7.724.256-11.557,0-3.334-.219-6.616-.972-9.935-.5a.485.485,0,0,0-.239-.129c-4.6-1.095-.457-4.328-.007-5.877m-1.255,6.459a4.806,4.806,0,0,0,1.134.118.444.444,0,0,0,.445-.257c4.027.356,8.014,1.156,12.061,1.277,4.451.133,8.95-.063,13.4-.12,6.051-.077,12.358.136,17.815-1.9.017.008.024.019.042.026q2.152,4.361-1.75,4.676l-2.609.414c-1.783.283-3.562.6-5.353.845-4.5.627-8.364-.021-12.814.089-3.99.1-7.753.678-11.779.385-2.407-.175-4.756-.562-7.118-.92q-1.443-.25-2.9-.439-3.16-2.549-.574-4.2m-9.3,16.2a17.293,17.293,0,0,0-2.886-.236l.974-.453c.687-.319.083-1.078-.635-.8-1.184.456-2.3,1.031-3.518,1.444-3.317,1.127-7.161-.311-7.483-3.027-.459-3.869,3.193-5.161,7.948-5.379,2.791-.128,5.173.444,7.353.332-.806.188-1.63.29-2.424.53-.242.073-.31.361,0,.414,2.054.352,5.718-.87,6.476-2.366a.094.094,0,0,0,0-.065c.065-.053.131-.108.2-.164,3.84,2.285,2.779,6.844,2.239,10.027-2.789-.137-5.436.173-8.242-.256m8.289,5.286a6.53,6.53,0,0,0,2.3-.768c1.1-.6,2.116-1.655,1.836-2.716-.05-.19-.409-.2-.532-.051a7.252,7.252,0,0,1-2.045,2.058,4.078,4.078,0,0,1-1.022.384c.048-.109.093-.219.137-.334a25.406,25.406,0,0,0,1.072-5.392c.439-3.05.547-7.331-3.844-8.869a.453.453,0,0,0-.525.115,5.464,5.464,0,0,1-.981.544,6.846,6.846,0,0,0,.174-1.416,3.563,3.563,0,0,1,1.069-2.825,7.155,7.155,0,0,1,1.237-.784,2.073,2.073,0,0,0-.109,1.818c.583,1.347,2.341,1.536,4,1.879a71.944,71.944,0,0,0,11.037,1.511c4.632.225,9.092-.648,13.735-.216a37.778,37.778,0,0,0,9.094-.194c3.08-.436,7.091-.687,9.952-1.686a5.453,5.453,0,0,0,1.752-.961c2.07,1.086.288,2.286-.6,3.711-.918,1.48-.707,3.653-.856,5.213a57.941,57.941,0,0,0-.489,6.806,5.278,5.278,0,0,0,.181,1.863c.257.611,1.423,1.627,1.295,2.339-7.745,2.557-18.272,2.064-26.585,1.857a98.991,98.991,0,0,1-12.065-1.313c-2.834-.415-5.741-.767-8.364.237a.267.267,0,0,0-.122-.173c-1.39-.932-1.2-1.686-.732-2.64m-.526,3.216a1.888,1.888,0,0,0,1.062-.028.579.579,0,0,0,.188-.094.19.19,0,0,0,.079.02c4.9-.121,8.933.607,13.7,1.242a90.356,90.356,0,0,0,11.418.576c6.446.032,13.795.242,20.167-1.158-.226,4.727-7.613,4.994-12.586,5.249q-5.7.294-11.406.592c-3.8.206-7.6.479-11.407.663-2.95.142-5.463.261-7.854-1.413-1.757-1.231-3.882-3.751-3.362-5.649m-.52,2.288a10.081,10.081,0,0,0,4.269,4.428,12.315,12.315,0,0,0,6.182,1.206c3.941.016,7.943-.289,11.877-.461,6.377-.279,14,.127,20.139-1.35,2.759-.663,5.045-2.054,5.809-3.943,2.43,1.7-.73,6.812-1.163,8.52a9.991,9.991,0,0,0-.182,4.8c.484,2.042,2.095,4.2,1.82,6.314-.473,3.643-5.838,4.326-9.555,5.051-12.355,2.407-24.434,1.633-36.612-.822a.552.552,0,0,0-.283.012.51.51,0,0,0-.1-.035c-1.263-.222-5.532-1.146-5.739-2.329-.113-.647,1.247-1.694,1.623-2.305a13.961,13.961,0,0,0,1.77-4.9,29.556,29.556,0,0,0,.469-8.145c-.178-2.056-1.207-4.036-.325-6.04m45.715,24.169a19,19,0,0,1-8.534,7.389,36.988,36.988,0,0,1-14.412,2.959,43.53,43.53,0,0,1-14.156-2.163c-4.15-1.38-13.539-5.349-11.732-9.563a23.73,23.73,0,0,0,5.063,1.613.537.537,0,0,0,.395-.048l.012.006a75.668,75.668,0,0,0,23.523,2.82c6.1-.159,14.231-.689,19.841-3.011m-61.848-9.914c-7.683.424-6.625-12.594,2.677-9.479,1.844.618,3.046,1.671,5.215,1.676,2.82.008,6.1-1.761,5.613-3.991-.036-.166-.373-.181-.473-.046a7.637,7.637,0,0,1-2.82,2.486c-.138-1.347-.333-2.756.974-3.851a4.953,4.953,0,0,1,2.205-.991,10.326,10.326,0,0,1,2.137-.044c-1.167,1.224-.477,2.774-.2,4.262a23.571,23.571,0,0,1-.583,11.569,14.386,14.386,0,0,0-6.994-2.973c-3.086-.43-5.117.374-7.752,1.382m4.193,6.348a3.931,3.931,0,0,1,.409-3.329,29.9,29.9,0,0,1,2.751-3.506c.31.046.624.1.957.174a13.265,13.265,0,0,1,5.667,2.761.671.671,0,0,0,.4.151c-.584,1.283-1.6,2.039-2.393,3.273-.109.168-.595.44-.6.618,0,.013,0,.024,0,.037-1.708.16-2.474,1.044-4,1.715-.182.08-.358.144-.536.211a.728.728,0,0,0-.564-.033c-1.077.368-1.934-1.635-2.09-2.073m92.817,23.39a34.237,34.237,0,0,0-.223,5.23,9.126,9.126,0,0,1-.145,1.233c-.456-2.734-3.894-5.243-7.031-6.451-.311-.12-.55.2-.271.342a17.8,17.8,0,0,1,4.284,3.027,39.541,39.541,0,0,1,2.5,3.287.391.391,0,0,0,.466.038,7.333,7.333,0,0,1-.962,2.4.211.211,0,0,0-.007-.056c-3.42-8.379-16.795-14.783-28.4-14.607-.149,0-.2.178-.036.2a49.088,49.088,0,0,1,15.919,4.53c5.274,2.692,8.437,6.165,11.742,10.116a.521.521,0,0,0,.583.1,13.739,13.739,0,0,1-2.99,2.992c-3.214,2.489-6.063,5.038-7.188,8.461-1.276,3.888-1.382,7.294-4.644,10.709-3.2,3.346-7.622,5.932-11.848,8.53-.267.164-.21.423-.019.6-1.044,1.757-1.677,3.589-3.049,5.265a24.761,24.761,0,0,1-6.706,5.311,28.416,28.416,0,0,0-5.162,3.4c-.312.3-.587.6-.852.9a.149.149,0,0,0-.007-.085c-.3-.605-1.416-.839-2.207-.931a5.434,5.434,0,0,0-2.843.391c-.268.122-.093.427.212.372a7.343,7.343,0,0,1,2.572-.055,16.356,16.356,0,0,0,1.941.537.357.357,0,0,0,.159-.031,21.739,21.739,0,0,1-3.269,3.518.978.978,0,0,0-.207.039c-3.955,1.247-6.494,1.049-10.669.617a15.884,15.884,0,0,0-6.785.336c-.379.124-.183.584.209.569,3.959-.144,7.584.632,11.491.759,2.23.073,4.73-.135,6.283-1.39a9.712,9.712,0,0,0,1.742-1.091c4.966,1.133-3.153,5.289-4.1,5.875-2.253,1.4-2.289,1.987-3.194,4.146a34.41,34.41,0,0,1-1.782,3.631.527.527,0,0,0-.663-.362c-1.115.275-2.172-.227-3.3-.236a22.523,22.523,0,0,0-3.16.378c-.122.017-.143.156-.035.2,1.275.482,2.682.1,4.031.342,1.076.2,2.016.575,2.959-.018-.423.736-.876,1.474-1.372,2.244a7.547,7.547,0,0,1-1.007,1.709,6.267,6.267,0,0,1-.415.647q-.3.616-1.651.043a.158.158,0,0,0-.067-.162.321.321,0,0,0,.017-.043c.205-1.915-2.188-3.415-2.762-5.284-.5-1.62-.284-2.178-1.572-3.491a5.55,5.55,0,0,1-1.875-1.99,3.749,3.749,0,0,0-.646-1.779,2.535,2.535,0,0,0-.711-.63,7.184,7.184,0,0,0-1.652-.66q-.82-.255-1.635-.52a2.808,2.808,0,0,1,2.244-3.4A9.314,9.314,0,0,0,263.9,467c.874.087,1.273-.89.373-1-4.133-.5-5.008-3.523-7.171-5.679-1.663-1.656-4-2.739-6.085-4.07-2.8-1.786-3.214-3.942-4.989-6.154-1.933-2.411-4.505-3.977-5.787-6.69.5-.186.6-.809-.082-.91-5.881-.882-8.815-7.869-10.044-11.561-1.057-3.175-1.633-6.589-4.414-9.26-2.6-2.5-6.625-3.755-9.794-5.777,4.414-2.64,8.317-5.615,13.045-8.007,4.47-2.26,9.473-3.792,13.988-5.947.143-.068.055-.243-.118-.207-5.279,1.1-10.373,3.61-14.859,5.878-4.458,2.254-9.2,4.787-12.6,7.924a17.82,17.82,0,0,1-1.482-1.12q3.145-2.131,6.552-4.037c2.061-1.158,4.694-2.161,6.459-3.559.079-.063,0-.18-.12-.151-2.7.655-5.339,2.493-7.561,3.757a26.973,26.973,0,0,0-5.611,3.745,11.184,11.184,0,0,1-1.088-1.105c.131-.1.257-.2.409-.329.47-.382.974-.738,1.49-1.087,1.024-.691,2.246-1.2,3.229-1.918.122-.089,0-.237-.165-.208a9.994,9.994,0,0,0-3.53,1.584,9.577,9.577,0,0,0-1.878,1.384,4.991,4.991,0,0,1-1.025-2.8c-.027-1.841,1.23-3.589,1.329-5.447.235-4.443-.108-8.13,3.815-11.9,1.238-1.189,2.875-2.077,4.127-3.244,1.3-1.208,1.244-2.254,2.018-3.6,2.407-4.2,6.655-.7,9.116.486a11.328,11.328,0,0,0,4.29,1.174,11.5,11.5,0,0,0,3.783-.394c.037-.008.075-.021.112-.033.2-.056.395-.1.584-.17,1.6-.559,2.916-1.935,4.661-2.2.018.053.035.108.063.173a2.081,2.081,0,0,0,.643.762c-2.777,3.534,2.838,6.79,6.373,8.72a41.992,41.992,0,0,0,17.5,4.788,39.976,39.976,0,0,0,17.74-2.771c4.446-1.906,9.4-5.361,9.452-9.432.24-.124.457-.252.662-.383,2.284,1.589,6.348.568,8.9-.193,3.895-1.16,8.676-4.177,12.982-4.059,2.88.079,5.186,3.124,6.528,4.67a26.9,26.9,0,0,1,4.158,6.313c2.251,4.876,1.547,9.131.565,14.1" transform="translate(3255.49 -14061.825)" fill="#fff"/>
  </g>
</svg>
